<svg xmlns="http://www.w3.org/2000/svg" viewBox="0 0 194.94 185.33"><defs><style>.cls-1{fill:#285124;}</style></defs><title>arvore</title><g id="Camada_2" data-name="Camada 2"><g id="Layer_2" data-name="Layer 2"><path class="cls-1" d="M192.86,43.77C191,41.6,188,40.81,185,41c.33-3.7-.49-7.38-3-9.52-2.73-2.34-6.8-2.28-10.49-.87a9,9,0,0,0-2.74-5.12c-2.07-1.78-4.93-2.14-7.79-1.62-1.3-3-3.41-5.45-6.21-6.17a7.77,7.77,0,0,0-4.68.36,8,8,0,0,0-3.8-2.35,7,7,0,0,0-1.12-.1c-1.25-3.36-3.48-6.17-6.52-7C136,8,133.25,9,130.85,10.76c-2-3.2-4.86-5.62-8.15-5.65a8.22,8.22,0,0,0-5.21,2.06c-1.92-2.54-4.46-4.35-7.29-4.38a8.13,8.13,0,0,0-5,1.87C103.29,2,100.65,0,97.7,0a.9.9,0,0,1-.46,0c-2.95,0-5.59,2-7.53,4.66a8.14,8.14,0,0,0-5-1.87c-2.83,0-5.36,1.84-7.28,4.38a8.22,8.22,0,0,0-5.22-2.06c-3.29,0-6.18,2.45-8.15,5.65C61.69,9,58.92,8,56.28,8.63c-3,.79-5.27,3.6-6.52,7a7.08,7.08,0,0,0-1.13.1A8,8,0,0,0,44.84,18a7.77,7.77,0,0,0-4.68-.36c-2.8.72-4.91,3.17-6.21,6.17-2.86-.52-5.72-.16-7.79,1.62a8.9,8.9,0,0,0-2.74,5.12c-3.69-1.41-7.76-1.47-10.49.87-2.49,2.14-3.31,5.82-3,9.52-3-.17-6,.62-7.86,2.79-4,4.67-1.69,13.77,2.77,18A10.5,10.5,0,0,0,19.17,62c18.31,14.2,55.56,16.78,71.26,17.23l.37,1-.06,5.34-1.07,2.64.24.63.84,2L90.68,97l-1.12,2.53L90.62,102l-.09,7.58-1.13,2.55,1.07,2.45L90.39,122l-1.17,2.64,1.1,2.53-.08,7.48-1.13,2.55,1.07,2.44-.09,7.5-1.16,2.62,1.1,2.51-.09,7.45-1.15,2.6,1.09,2.49-.08,7.43-1.17,2.64,1.11,2.53L89.66,184l-22.17,1.36h59.73L105.38,184l-.08-6.67,1-2.51-1-2.5-.09-7.58.94-2.48-1-2.46-.09-7.66.92-2.44-1-2.43-.09-7.76.89-2.37-.95-2.35-.09-7.83.9-2.38-1-2.36-.09-7.71.94-2.49-1-2.47-.09-7.71.9-2.38-1-2.36-.08-6.25,1-2.65-1.07-2.64-.07-5.34.37-1c15.71-.45,52.95-3,71.27-17.23a10.5,10.5,0,0,0,14.32-.21C194.55,57.54,196.9,48.44,192.86,43.77ZM89.41,58.18l1,.1.63,1.65L91,65.38l-.12.31c-2.46-.56-5.44-1.36-8.71-2.45A19.38,19.38,0,0,0,89.41,58.18Zm-14,6.46a18,18,0,0,0,3.31-.38c2.05.75,4,1.4,5.87,1.94-3.4-.37-7.24-.92-11.23-1.75A17.35,17.35,0,0,0,75.4,64.64ZM64.05,60.92a18.62,18.62,0,0,0,3.73,2.19q-2.44-.66-4.86-1.49C63.3,61.38,63.69,61.18,64.05,60.92Zm-23.92-1.3.4.34c-.14-.1-.3-.19-.44-.28Zm-19.56.9a11.93,11.93,0,0,0,1.1-1.66,13.76,13.76,0,0,0,2.18,2.8,10.54,10.54,0,0,0,15-.4C51.14,69.5,67.16,74.1,79.37,76.58,61.47,75.25,34.88,71.41,20.57,60.52ZM90.45,76.41c-10-1.45-28.49-5-43.73-12.88A18.41,18.41,0,0,0,53,64.64,18.61,18.61,0,0,0,60.59,63c10.89,4,22.68,5.37,29.94,5.78l.4,1.06-.07,5.58Zm64.36-16.79,0,.06-.45.28C154.54,59.84,154.68,59.74,154.81,59.62Zm-23.92,1.3c.36.26.75.46,1.12.7q-2.41.83-4.85,1.49A18.9,18.9,0,0,0,130.89,60.92Zm-14.67,3.34a18.25,18.25,0,0,0,3.32.38,17.35,17.35,0,0,0,2-.19c-4,.83-7.84,1.38-11.23,1.75C112.2,65.66,114.18,65,116.22,64.26Zm-12.33-4.33.63-1.65,1-.1a19.3,19.3,0,0,0,7.26,5.06c-3.27,1.09-6.25,1.89-8.71,2.45l-.12-.31Zm.6,16.48-.41-1L104,69.81l.4-1.06c7.25-.41,19-1.73,29.93-5.78a18.69,18.69,0,0,0,7.57,1.67,18.45,18.45,0,0,0,6.31-1.11C133,71.39,114.47,75,104.49,76.41Zm11.08.17c12.21-2.48,28.23-7.08,40.54-15.32a10.52,10.52,0,0,0,15,.4,13.8,13.8,0,0,0,2.19-2.8,11.93,11.93,0,0,0,1.1,1.66C160.06,71.41,133.46,75.25,115.57,76.58Z"/></g></g></svg>