<svg xmlns="http://www.w3.org/2000/svg" xmlns:xlink="http://www.w3.org/1999/xlink" viewBox="0 0 1920 456.05"><defs><linearGradient id="b" x2="1920" y1="383.48" y2="383.48" gradientUnits="userSpaceOnUse"><stop offset="0" stop-color="#285124"/><stop offset=".46" stop-color="#417d28"/><stop offset=".77" stop-color="#329b28"/><stop offset="1" stop-color="#26b328"/></linearGradient><linearGradient id="c" x1="142.84" x2="1903.18" y1="223.4" y2="223.4" gradientUnits="userSpaceOnUse"><stop offset="0" stop-color="#29333c"/><stop offset=".04" stop-color="#27313a"/><stop offset=".66" stop-color="#0b1018"/><stop offset="1" stop-color="#00040b"/></linearGradient><linearGradient id="a" x1="1056.17" x2="1968.37" y1="239.36" y2="1654.42" gradientTransform="rotate(-90 946.845 527.095)" gradientUnits="userSpaceOnUse"><stop offset="0" stop-color="#734017"/><stop offset=".08" stop-color="#b57d23"/><stop offset=".19" stop-color="#764218"/><stop offset=".35" stop-color="#bf7a2d"/><stop offset=".54" stop-color="#fbf18a"/><stop offset=".64" stop-color="#f8be63"/><stop offset=".75" stop-color="#9d5919"/><stop offset=".86" stop-color="#4f220a"/><stop offset="1" stop-color="#f1a644"/></linearGradient><linearGradient id="d" x1="973.23" x2="1667.77" y1="439.59" y2="1406.35" xlink:href="#a"/><linearGradient id="e" x1="816.31" x2="1334.24" y1="-652.08" y2="412.71" xlink:href="#a"/><linearGradient id="f" x1="904.86" x2="1587.68" y1="-468.98" y2="721.46" xlink:href="#a"/><linearGradient id="g" x1="875.93" x2="1237.92" y1="-454.88" y2="-9.48" xlink:href="#a"/><linearGradient id="h" x1="903.76" x2="1390.47" y1="-344.98" y2="105.55" xlink:href="#a"/></defs><g data-name="Camada 2"><path fill="#285124" d="M1399 335q-20.24-4.36-40.3-7.87C1071.67 276.85 809 354.56 445 409c-88.09 13.18-155.1 18-203.38 19.2h-.06C93 441 6 428.23 6 428.23l-3.65-.61C.72 427.24 0 427 0 427v29h91.94q12.72.06 27.44 0H1920v-98s-183 50-521-23z"/><path fill="url(#b)" d="M1920 358v44s-145 40.87-290 32c-245-15-299-99-823-41-187.84 20.79-402.41 53.59-502 58-78.77 3.49-139.69 4.79-185.62 5q-14.73.06-27.44 0C26.3 455.68 0 453 0 453v-25.77l2.35.39 3.65.61s87 12.79 235.56 0h.06c48.28-1.17 115.29-6 203.38-19.2 364-54.46 626.67-132.17 913.7-81.87q20.07 3.5 40.3 7.87C1737 408 1920 358 1920 358z"/><path fill="url(#c)" d="M1920 19.08V358s-183 50-521-23c-303.07-65.46-573 17-954 74-212.13 31.74-302.16 15.21-302.16 15.21 111.6-16.73 278.44-54.43 484.6-139.17C1017.82 124.6 1273.93 7.37 1920 19.08z"/><path fill="url(#a)" fill-rule="evenodd" d="M0 417.78C708.5 404.36 789.82 18.29 1920 0v29.83C918.68 30.69 825.35 282.7 242.86 427.23H0z"/><path fill="url(#d)" fill-rule="evenodd" d="M1920 14.33v15.5c-526.83.45-802.29 70.44-1029.91 157.71H890S1063.67 99 1429.57 46.36C1562 27.31 1741.68 16.45 1920 14.33z"/><path fill="url(#e)" fill-rule="evenodd" d="M0 417.78c520.89-9.87 708.8-220.15 1217.73-338.63-273.31 70.28-414.12 140.65-487.56 177.67-134.84 68-279 120.57-474.23 169.64-4.7 1.18-9.55 1.35-14.38 1.77C93 441 0 427.23 0 427.23z"/><path fill="url(#f)" fill-rule="evenodd" d="M0 417.78c335.06-6.35 529.87-96 761.68-190.75C550.11 332.35 337.64 398 175 419c-43.44 5.61-175 8.21-175 8.21z"/><path fill="url(#g)" fill-rule="evenodd" d="M0 402.51c103.15-8 362.24-36.9 609.13-135.65C609.13 266.86 346 357 0 377z"/><path fill="url(#h)" fill-rule="evenodd" d="M609.13 266.86S346 357 0 377v16.53c96.43-8.04 371.38-37.59 609.13-126.67z"/></g></svg>