<svg xmlns="http://www.w3.org/2000/svg" viewBox="0 0 208 120"><defs><style>.cls-1{fill:none;}.cls-2{fill:#f1f2f6;}.cls-3{fill:#e5e6e9;}</style></defs><title>decor-snow</title><g id="Camada_2" data-name="Camada 2"><g id="snow"><rect class="cls-1" width="208" height="120"/><g id="snow-decor"><path class="cls-2" d="M96.22,9.36A11.1,11.1,0,0,1,94.55,12c-2.13,2.74-5,5.78-8.44,5.25a16.23,16.23,0,0,1-2.93-1,13.21,13.21,0,0,0-5.68-.72c-2.42.22-5,1.33-5.92,3.54-.49,1.19-.51,2.65-1.48,3.5a1.57,1.57,0,0,1-1.78,0,2.1,2.1,0,0,0-2.52.32,13,13,0,0,0-2.44,3.13,1.35,1.35,0,0,1-2.52-.39v-.07a1.36,1.36,0,0,0-2.44-.54,24.29,24.29,0,0,0-4.53,13,5.68,5.68,0,0,1-.49,2.59l0,0a1.24,1.24,0,0,1-2.27-.59,3.21,3.21,0,0,0-.72-1.85,1.83,1.83,0,0,0-1.31-.65c-1,0-1.4.71-1.69,1.42-.78,1.93-.81,4.15-1.92,5.91l0,.06a2.25,2.25,0,0,1-3.95-2.09c1-2.56,1.6-5.23.8-7.79a26.56,26.56,0,0,1-1.12-3.17c-.75-4.16,3.93-7.42,4.43-11.61.16-1.4-.16-2.82,0-4.23a6.88,6.88,0,0,1,5.28-5.89c1.78-.38,3.63,0,5.45-.19s3.8-1,4.29-2.73c.25-.85.08-1.77.29-2.63.49-2,2.81-3,4.87-3.53A37.86,37.86,0,0,1,82.4.79C85.78,1.49,92,.72,94.56,3A5.86,5.86,0,0,1,96.22,9.36ZM86.63,20.42a.53.53,0,0,0-.2,1,.53.53,0,0,0,.63-.42A.54.54,0,0,0,86.63,20.42ZM76,21.18a1,1,0,0,0-.26,1.37,1,1,0,0,0,1.38.27,1,1,0,0,0,.26-1.37A1,1,0,0,0,76,21.18ZM66,29.08a.9.9,0,1,0-.35,1.77A.9.9,0,1,0,66,29.08Zm9.09-.69a.72.72,0,1,0,.58.85A.71.71,0,0,0,75.05,28.39ZM59.48,36.63a.86.86,0,0,0-1,.68.88.88,0,0,0,1.73.34A.87.87,0,0,0,59.48,36.63Zm-6.22,8.48a1.07,1.07,0,1,0,.86,1.25A1.07,1.07,0,0,0,53.26,45.11Zm-10.44,3.6a1.39,1.39,0,1,0,1.12,1.63A1.4,1.4,0,0,0,42.82,48.71Zm52-29.51a.43.43,0,0,0-.5.33.42.42,0,0,0,.33.5.43.43,0,0,0,.5-.33A.42.42,0,0,0,94.82,19.2Z"/><path class="cls-3" d="M95.48,10.74c-.29.43-.61.84-.93,1.26-2.13,2.74-5,5.78-8.44,5.25a16.23,16.23,0,0,1-2.93-1,13.21,13.21,0,0,0-5.68-.72c-2.42.22-5,1.33-5.92,3.54-.49,1.19-.51,2.65-1.48,3.5a1.57,1.57,0,0,1-1.78,0,2.1,2.1,0,0,0-2.52.32,13,13,0,0,0-2.44,3.13,1.35,1.35,0,0,1-2.52-.39v-.07a1.36,1.36,0,0,0-2.44-.54,24.29,24.29,0,0,0-4.53,13,5.68,5.68,0,0,1-.49,2.59l0,0a1.24,1.24,0,0,1-2.27-.59,3.21,3.21,0,0,0-.72-1.85,1.83,1.83,0,0,0-1.31-.65c-1,0-1.4.71-1.69,1.42-.78,1.93-.81,4.15-1.92,5.91l0,.06a2.25,2.25,0,0,1-3.95-2.09c1-2.56,1.6-5.23.8-7.79a26.56,26.56,0,0,1-1.12-3.17,6,6,0,0,1,.54-3.55,2.42,2.42,0,0,1,1.13.81,6,6,0,0,1,1,2.31,3.4,3.4,0,0,0,3.69-2.14A7.42,7.42,0,0,1,48,27.75a1,1,0,0,1,1.42-.44c.29.23.36.64.56,1a1.7,1.7,0,0,0,2.29.31,4.09,4.09,0,0,0,1.43-2.06A19.81,19.81,0,0,0,55,21a1.7,1.7,0,0,1,.25-.89c.75-1,2.42.51,3.61.06,1-.38,1.59-2.14,2.56-1.65.35.18.49.59.73.89.87,1.12,2.79.57,3.61-.57s.94-2.61,1.41-3.93a1.41,1.41,0,0,1,.49-.75c.48-.32,1.13,0,1.7.09,1.55.33,3.06-.65,4.18-1.74s2.12-2.41,3.57-3c2.25-.94,4.83.06,7,1.22S88.52,13.22,91,13A7.51,7.51,0,0,0,95.48,10.74ZM89.36,5.62a.69.69,0,1,0-.56-.81A.7.7,0,0,0,89.36,5.62ZM77.71,4.77a1.18,1.18,0,1,0-.94-1.38A1.18,1.18,0,0,0,77.71,4.77ZM63.42,11.86A1,1,0,1,0,63.79,10a1,1,0,0,0-1.14.75A1,1,0,0,0,63.42,11.86Zm5.34-7.14a.74.74,0,0,0,.2-1,.76.76,0,0,0-1-.21.72.72,0,0,0-.2,1A.76.76,0,0,0,68.76,4.72ZM54,16.2A1.06,1.06,0,1,0,53.19,15,1.06,1.06,0,0,0,54,16.2Zm-3.78,5.7a.72.72,0,1,0-.59-.85A.72.72,0,0,0,50.25,21.9Zm-1.64-6.37a.72.72,0,0,0,.86-.56.74.74,0,0,0-.58-.85.72.72,0,0,0-.85.57A.71.71,0,0,0,48.61,15.53Zm23-5.61a1,1,0,1,0-.76-1.12A1,1,0,0,0,71.62,9.92ZM83.43,7.05a.59.59,0,0,0,.68-.45.58.58,0,0,0-.46-.67.57.57,0,1,0-.22,1.12Z"/></g></g></g></svg>