<svg xmlns="http://www.w3.org/2000/svg" viewBox="0 0 208 120"><defs><style>.cls-1{fill:none;}.cls-2{fill:#030202;}</style></defs><title>decor-suprema</title><g id="Camada_2" data-name="Camada 2"><g id="suprema"><rect class="cls-1" width="208" height="120"/><path id="suprema-decor" class="cls-2" d="M175.43,64a93,93,0,0,0-13.38-22.61c-5.32-6.75-12.42-10.93-19.42-16.46C126.73,13.82,112,8.29,97,8.34a56.42,56.42,0,0,0-40.9,18.48A79.33,79.33,0,0,0,39.4,56.07c-2.33,16.46,5,30.38,12.5,39.88a44.64,44.64,0,0,0,17.91,14c28.09,12.2,21.87-31.62,49.57-30.66C132,79.7,191,103.15,175.43,64Z"/></g></g></svg>