<svg xmlns="http://www.w3.org/2000/svg" viewBox="0 0 296.33 175.25"><defs><style>.cls-1{fill:#dedede;}</style></defs><title>dots-graphic-gray</title><g id="Camada_2" data-name="Camada 2"><g id="Layer_2" data-name="Layer 2"><path class="cls-1" d="M13.82,6.91A6.91,6.91,0,1,1,6.91,0,6.91,6.91,0,0,1,13.82,6.91Z"/><path class="cls-1" d="M54.18,6.91A6.91,6.91,0,1,1,47.27,0,6.91,6.91,0,0,1,54.18,6.91Z"/><path class="cls-1" d="M94.54,6.91A6.91,6.91,0,1,1,87.63,0,6.91,6.91,0,0,1,94.54,6.91Z"/><path class="cls-1" d="M134.9,6.91A6.92,6.92,0,1,1,128,0,6.91,6.91,0,0,1,134.9,6.91Z"/><path class="cls-1" d="M175.25,6.91A6.91,6.91,0,1,1,168.34,0,6.91,6.91,0,0,1,175.25,6.91Z"/><path class="cls-1" d="M215.61,6.91A6.91,6.91,0,1,1,208.7,0,6.91,6.91,0,0,1,215.61,6.91Z"/><path class="cls-1" d="M256,6.91A6.91,6.91,0,1,1,249.06,0,6.91,6.91,0,0,1,256,6.91Z"/><path class="cls-1" d="M296.33,6.91A6.91,6.91,0,1,1,289.42,0,6.91,6.91,0,0,1,296.33,6.91Z"/><path class="cls-1" d="M13.82,47.27a6.91,6.91,0,1,1-6.91-6.91A6.91,6.91,0,0,1,13.82,47.27Z"/><path class="cls-1" d="M54.18,47.27a6.91,6.91,0,1,1-6.91-6.91A6.91,6.91,0,0,1,54.18,47.27Z"/><path class="cls-1" d="M94.54,47.27a6.91,6.91,0,1,1-6.91-6.91A6.91,6.91,0,0,1,94.54,47.27Z"/><path class="cls-1" d="M134.9,47.27A6.92,6.92,0,1,1,128,40.36,6.91,6.91,0,0,1,134.9,47.27Z"/><path class="cls-1" d="M175.25,47.27a6.91,6.91,0,1,1-6.91-6.91A6.91,6.91,0,0,1,175.25,47.27Z"/><path class="cls-1" d="M215.61,47.27a6.91,6.91,0,1,1-6.91-6.91A6.91,6.91,0,0,1,215.61,47.27Z"/><path class="cls-1" d="M256,47.27a6.91,6.91,0,1,1-6.91-6.91A6.91,6.91,0,0,1,256,47.27Z"/><path class="cls-1" d="M296.33,47.27a6.91,6.91,0,1,1-6.91-6.91A6.91,6.91,0,0,1,296.33,47.27Z"/><path class="cls-1" d="M13.82,87.63a6.91,6.91,0,1,1-6.91-6.91A6.91,6.91,0,0,1,13.82,87.63Z"/><path class="cls-1" d="M54.18,87.63a6.91,6.91,0,1,1-6.91-6.91A6.91,6.91,0,0,1,54.18,87.63Z"/><path class="cls-1" d="M94.54,87.63a6.91,6.91,0,1,1-6.91-6.91A6.92,6.92,0,0,1,94.54,87.63Z"/><path class="cls-1" d="M134.9,87.63A6.92,6.92,0,1,1,128,80.72,6.92,6.92,0,0,1,134.9,87.63Z"/><path class="cls-1" d="M175.25,87.63a6.91,6.91,0,1,1-6.91-6.91A6.91,6.91,0,0,1,175.25,87.63Z"/><path class="cls-1" d="M215.61,87.63a6.91,6.91,0,1,1-6.91-6.91A6.91,6.91,0,0,1,215.61,87.63Z"/><path class="cls-1" d="M256,87.63a6.91,6.91,0,1,1-6.91-6.91A6.91,6.91,0,0,1,256,87.63Z"/><path class="cls-1" d="M296.33,87.63a6.91,6.91,0,1,1-6.91-6.91A6.92,6.92,0,0,1,296.33,87.63Z"/><path class="cls-1" d="M13.82,128a6.91,6.91,0,1,1-6.91-6.91A6.91,6.91,0,0,1,13.82,128Z"/><path class="cls-1" d="M54.18,128a6.91,6.91,0,1,1-6.91-6.91A6.91,6.91,0,0,1,54.18,128Z"/><path class="cls-1" d="M94.54,128a6.91,6.91,0,1,1-6.91-6.91A6.92,6.92,0,0,1,94.54,128Z"/><path class="cls-1" d="M134.9,128a6.92,6.92,0,1,1-6.92-6.91A6.92,6.92,0,0,1,134.9,128Z"/><path class="cls-1" d="M175.25,128a6.91,6.91,0,1,1-6.91-6.91A6.91,6.91,0,0,1,175.25,128Z"/><path class="cls-1" d="M215.61,128a6.91,6.91,0,1,1-6.91-6.91A6.91,6.91,0,0,1,215.61,128Z"/><path class="cls-1" d="M256,128a6.91,6.91,0,1,1-6.91-6.91A6.91,6.91,0,0,1,256,128Z"/><path class="cls-1" d="M296.33,128a6.91,6.91,0,1,1-6.91-6.91A6.92,6.92,0,0,1,296.33,128Z"/><path class="cls-1" d="M13.82,168.34a6.91,6.91,0,1,1-6.91-6.91A6.91,6.91,0,0,1,13.82,168.34Z"/><path class="cls-1" d="M54.18,168.34a6.91,6.91,0,1,1-6.91-6.91A6.91,6.91,0,0,1,54.18,168.34Z"/><path class="cls-1" d="M94.54,168.34a6.91,6.91,0,1,1-6.91-6.91A6.91,6.91,0,0,1,94.54,168.34Z"/><path class="cls-1" d="M134.9,168.34a6.92,6.92,0,1,1-6.92-6.91A6.91,6.91,0,0,1,134.9,168.34Z"/><path class="cls-1" d="M175.25,168.34a6.91,6.91,0,1,1-6.91-6.91A6.91,6.91,0,0,1,175.25,168.34Z"/><path class="cls-1" d="M215.61,168.34a6.91,6.91,0,1,1-6.91-6.91A6.91,6.91,0,0,1,215.61,168.34Z"/><path class="cls-1" d="M256,168.34a6.91,6.91,0,1,1-6.91-6.91A6.91,6.91,0,0,1,256,168.34Z"/><path class="cls-1" d="M296.33,168.34a6.91,6.91,0,1,1-6.91-6.91A6.91,6.91,0,0,1,296.33,168.34Z"/></g></g></svg>