<svg xmlns="http://www.w3.org/2000/svg" width="74.64" height="170.23" viewBox="0 0 74.64 170.23">
  <g id="Camada_2" data-name="Camada 2" transform="translate(0.01 0.01)">
    <g id="Layer_2" data-name="Layer 2">
      <path id="Caminho_16" data-name="Caminho 16" d="M69.18,10.91a5.46,5.46,0,1,1,5.45-5.45A5.46,5.46,0,0,1,69.18,10.91Z" fill="#4492e0"/>
      <path id="Caminho_17" data-name="Caminho 17" d="M69.18,42.77a5.46,5.46,0,1,1,5.45-5.45A5.46,5.46,0,0,1,69.18,42.77Z" fill="#4492e0"/>
      <path id="Caminho_18" data-name="Caminho 18" d="M69.18,74.63a5.46,5.46,0,1,1,5.45-5.45,5.46,5.46,0,0,1-5.45,5.45Z" fill="#4492e0"/>
      <path id="Caminho_19" data-name="Caminho 19" d="M69.18,106.49a5.45,5.45,0,1,1,3.868-1.61A5.46,5.46,0,0,1,69.18,106.49Z" fill="#4492e0"/>
      <path id="Caminho_20" data-name="Caminho 20" d="M69.18,138.36a5.46,5.46,0,1,1,5.45-5.46,5.46,5.46,0,0,1-5.45,5.46Z" fill="#4492e0"/>
      <path id="Caminho_21" data-name="Caminho 21" d="M69.18,170.22a5.46,5.46,0,1,1,5.45-5.46,5.46,5.46,0,0,1-5.45,5.46Z" fill="#4492e0"/>
      <path id="Caminho_22" data-name="Caminho 22" d="M37.32,10.91a5.46,5.46,0,1,1,5.45-5.45A5.46,5.46,0,0,1,37.32,10.91Z" fill="#4492e0"/>
      <path id="Caminho_23" data-name="Caminho 23" d="M37.32,42.77a5.46,5.46,0,1,1,5.45-5.45A5.46,5.46,0,0,1,37.32,42.77Z" fill="#4492e0"/>
      <path id="Caminho_24" data-name="Caminho 24" d="M37.32,74.63a5.46,5.46,0,1,1,5.45-5.45,5.46,5.46,0,0,1-5.45,5.45Z" fill="#4492e0"/>
      <path id="Caminho_25" data-name="Caminho 25" d="M37.32,106.49a5.45,5.45,0,1,1,3.868-1.61A5.46,5.46,0,0,1,37.32,106.49Z" fill="#4492e0"/>
      <path id="Caminho_26" data-name="Caminho 26" d="M37.32,138.36a5.46,5.46,0,1,1,5.45-5.46,5.46,5.46,0,0,1-5.45,5.46Z" fill="#4492e0"/>
      <path id="Caminho_27" data-name="Caminho 27" d="M37.32,170.22a5.46,5.46,0,1,1,5.45-5.46,5.46,5.46,0,0,1-5.45,5.46Z" fill="#4492e0"/>
      <path id="Caminho_28" data-name="Caminho 28" d="M5.46,10.91a5.46,5.46,0,1,1,5.45-5.45,5.46,5.46,0,0,1-5.45,5.45Z" fill="#4492e0"/>
      <path id="Caminho_29" data-name="Caminho 29" d="M5.46,42.77a5.46,5.46,0,1,1,5.45-5.45,5.46,5.46,0,0,1-5.45,5.45Z" fill="#4492e0"/>
      <path id="Caminho_30" data-name="Caminho 30" d="M5.46,74.63a5.46,5.46,0,1,1,5.45-5.45,5.46,5.46,0,0,1-5.45,5.45Z" fill="#4492e0"/>
      <path id="Caminho_31" data-name="Caminho 31" d="M5.46,106.49a5.45,5.45,0,1,1,3.868-1.61,5.46,5.46,0,0,1-3.868,1.61Z" fill="#4492e0"/>
      <path id="Caminho_32" data-name="Caminho 32" d="M5.46,138.36a5.46,5.46,0,1,1,5.45-5.46,5.46,5.46,0,0,1-5.45,5.46Z" fill="#4492e0"/>
      <path id="Caminho_33" data-name="Caminho 33" d="M5.46,170.22a5.46,5.46,0,1,1,5.45-5.46,5.46,5.46,0,0,1-5.45,5.46Z" fill="#4492e0"/>
    </g>
  </g>
</svg>
