<svg xmlns="http://www.w3.org/2000/svg" viewBox="0 0 176.87 136.14"><defs><style>.cls-1{opacity:0.3;}.cls-2{fill:#4ca83d;}</style></defs><title>dots-graphic-green</title><g id="Camada_2" data-name="Camada 2"><g id="Layer_2" data-name="Layer 2"><g class="cls-1"><path class="cls-2" d="M14,7A7,7,0,1,1,7,0,7,7,0,0,1,14,7Z"/><path class="cls-2" d="M54.68,7a7,7,0,1,1-7-7A7,7,0,0,1,54.68,7Z"/><path class="cls-2" d="M95.41,7a7,7,0,1,1-7-7A7,7,0,0,1,95.41,7Z"/><path class="cls-2" d="M136.14,7a7,7,0,1,1-7-7A7,7,0,0,1,136.14,7Z"/><path class="cls-2" d="M176.87,7a7,7,0,1,1-7-7A7,7,0,0,1,176.87,7Z"/><path class="cls-2" d="M14,47.71a7,7,0,1,1-7-7A7,7,0,0,1,14,47.71Z"/><path class="cls-2" d="M54.68,47.71a7,7,0,1,1-7-7A7,7,0,0,1,54.68,47.71Z"/><path class="cls-2" d="M95.41,47.71a7,7,0,1,1-7-7A7,7,0,0,1,95.41,47.71Z"/><path class="cls-2" d="M136.14,47.71a7,7,0,1,1-7-7A7,7,0,0,1,136.14,47.71Z"/><path class="cls-2" d="M176.87,47.71a7,7,0,1,1-7-7A7,7,0,0,1,176.87,47.71Z"/><path class="cls-2" d="M14,88.44a7,7,0,1,1-7-7A7,7,0,0,1,14,88.44Z"/><path class="cls-2" d="M54.68,88.44a7,7,0,1,1-7-7A7,7,0,0,1,54.68,88.44Z"/><path class="cls-2" d="M95.41,88.44a7,7,0,1,1-7-7A7,7,0,0,1,95.41,88.44Z"/><path class="cls-2" d="M136.14,88.44a7,7,0,1,1-7-7A7,7,0,0,1,136.14,88.44Z"/><path class="cls-2" d="M176.87,88.44a7,7,0,1,1-7-7A7,7,0,0,1,176.87,88.44Z"/><path class="cls-2" d="M14,129.17a7,7,0,1,1-7-7A7,7,0,0,1,14,129.17Z"/><path class="cls-2" d="M54.68,129.17a7,7,0,1,1-7-7A7,7,0,0,1,54.68,129.17Z"/><path class="cls-2" d="M95.41,129.17a7,7,0,1,1-7-7A7,7,0,0,1,95.41,129.17Z"/><path class="cls-2" d="M136.14,129.17a7,7,0,1,1-7-7A7,7,0,0,1,136.14,129.17Z"/><path class="cls-2" d="M176.87,129.17a7,7,0,1,1-7-7A7,7,0,0,1,176.87,129.17Z"/></g></g></g></svg>