<svg xmlns="http://www.w3.org/2000/svg" viewBox="0 0 170.22 42.77"><defs><style>.cls-1{fill:#fff;}</style></defs><title>dots-graphic-white</title><g id="Camada_2" data-name="Camada 2"><g id="Layer_2" data-name="Layer 2"><path class="cls-1" d="M10.91,5.46A5.46,5.46,0,1,1,5.46,0,5.45,5.45,0,0,1,10.91,5.46Z"/><path class="cls-1" d="M42.77,5.46A5.46,5.46,0,1,1,37.32,0,5.45,5.45,0,0,1,42.77,5.46Z"/><path class="cls-1" d="M74.63,5.46A5.46,5.46,0,1,1,69.18,0,5.45,5.45,0,0,1,74.63,5.46Z"/><path class="cls-1" d="M106.49,5.46A5.46,5.46,0,1,1,101,0,5.45,5.45,0,0,1,106.49,5.46Z"/><path class="cls-1" d="M138.36,5.46A5.46,5.46,0,1,1,132.9,0,5.46,5.46,0,0,1,138.36,5.46Z"/><path class="cls-1" d="M170.22,5.46A5.46,5.46,0,1,1,164.76,0,5.46,5.46,0,0,1,170.22,5.46Z"/><path class="cls-1" d="M10.91,37.32a5.46,5.46,0,1,1-5.45-5.46A5.45,5.45,0,0,1,10.91,37.32Z"/><path class="cls-1" d="M42.77,37.32a5.46,5.46,0,1,1-5.45-5.46A5.45,5.45,0,0,1,42.77,37.32Z"/><path class="cls-1" d="M74.63,37.32a5.46,5.46,0,1,1-5.45-5.46A5.45,5.45,0,0,1,74.63,37.32Z"/><path class="cls-1" d="M106.49,37.32A5.46,5.46,0,1,1,101,31.86,5.45,5.45,0,0,1,106.49,37.32Z"/><path class="cls-1" d="M138.36,37.32a5.46,5.46,0,1,1-5.46-5.46A5.46,5.46,0,0,1,138.36,37.32Z"/><path class="cls-1" d="M170.22,37.32a5.46,5.46,0,1,1-5.46-5.46A5.46,5.46,0,0,1,170.22,37.32Z"/></g></g></svg>