<svg xmlns="http://www.w3.org/2000/svg" viewBox="0 0 74.63 170.22"><defs><style>.cls-1{fill:#84299a;}</style></defs><title>dots-graphic-purple</title><g id="Camada_2" data-name="Camada 2"><g id="Layer_2" data-name="Layer 2"><path class="cls-1" d="M69.18,10.91a5.46,5.46,0,1,1,5.45-5.45A5.45,5.45,0,0,1,69.18,10.91Z"/><path class="cls-1" d="M69.18,42.77a5.46,5.46,0,1,1,5.45-5.45A5.45,5.45,0,0,1,69.18,42.77Z"/><path class="cls-1" d="M69.18,74.63a5.46,5.46,0,1,1,5.45-5.45A5.45,5.45,0,0,1,69.18,74.63Z"/><path class="cls-1" d="M69.18,106.49A5.46,5.46,0,1,1,74.63,101,5.45,5.45,0,0,1,69.18,106.49Z"/><path class="cls-1" d="M69.18,138.36a5.46,5.46,0,1,1,5.45-5.46A5.46,5.46,0,0,1,69.18,138.36Z"/><path class="cls-1" d="M69.18,170.22a5.46,5.46,0,1,1,5.45-5.46A5.46,5.46,0,0,1,69.18,170.22Z"/><path class="cls-1" d="M37.32,10.91a5.46,5.46,0,1,1,5.45-5.45A5.45,5.45,0,0,1,37.32,10.91Z"/><path class="cls-1" d="M37.32,42.77a5.46,5.46,0,1,1,5.45-5.45A5.45,5.45,0,0,1,37.32,42.77Z"/><path class="cls-1" d="M37.32,74.63a5.46,5.46,0,1,1,5.45-5.45A5.45,5.45,0,0,1,37.32,74.63Z"/><path class="cls-1" d="M37.32,106.49A5.46,5.46,0,1,1,42.77,101,5.45,5.45,0,0,1,37.32,106.49Z"/><path class="cls-1" d="M37.32,138.36a5.46,5.46,0,1,1,5.45-5.46A5.46,5.46,0,0,1,37.32,138.36Z"/><path class="cls-1" d="M37.32,170.22a5.46,5.46,0,1,1,5.45-5.46A5.46,5.46,0,0,1,37.32,170.22Z"/><path class="cls-1" d="M5.46,10.91a5.46,5.46,0,1,1,5.45-5.45A5.45,5.45,0,0,1,5.46,10.91Z"/><path class="cls-1" d="M5.46,42.77a5.46,5.46,0,1,1,5.45-5.45A5.45,5.45,0,0,1,5.46,42.77Z"/><path class="cls-1" d="M5.46,74.63a5.46,5.46,0,1,1,5.45-5.45A5.45,5.45,0,0,1,5.46,74.63Z"/><path class="cls-1" d="M5.46,106.49A5.46,5.46,0,1,1,10.91,101,5.45,5.45,0,0,1,5.46,106.49Z"/><path class="cls-1" d="M5.46,138.36a5.46,5.46,0,1,1,5.45-5.46A5.46,5.46,0,0,1,5.46,138.36Z"/><path class="cls-1" d="M5.46,170.22a5.46,5.46,0,1,1,5.45-5.46A5.46,5.46,0,0,1,5.46,170.22Z"/></g></g></svg>