<svg xmlns="http://www.w3.org/2000/svg" width="125.9" height="137.515" viewBox="0 0 125.9 137.515">
  <g id="Grupo_24" data-name="Grupo 24" transform="translate(-324.214 -3530.485)">
    <path id="Caminho_77" data-name="Caminho 77" d="M387.166,3644.468a1.2,1.2,0,0,1-1.117-.864l-7.242-22.281-19.517,10.152a1.113,1.113,0,0,1-1.348-.254,1.392,1.392,0,0,1-.233-1.476l9.278-21.357-20.361-7.923a1.342,1.342,0,0,1,0-2.446l20.361-7.924-9.278-21.358a1.39,1.39,0,0,1,.233-1.475,1.113,1.113,0,0,1,1.348-.255l19.518,10.153,7.241-22.281a1.155,1.155,0,0,1,2.235,0l7.241,22.281,19.517-10.153a1.108,1.108,0,0,1,1.348.255,1.388,1.388,0,0,1,.232,1.475l-9.277,21.358,20.361,7.924a1.342,1.342,0,0,1,0,2.446l-20.361,7.923,9.277,21.357a1.389,1.389,0,0,1-.232,1.476,1.112,1.112,0,0,1-1.348.254l-19.517-10.152-7.241,22.281a1.2,1.2,0,0,1-1.118.864Zm-7.681-26.233a1.1,1.1,0,0,1,.454.1,1.257,1.257,0,0,1,.664.764l6.563,20.2,6.563-20.2a1.257,1.257,0,0,1,.664-.764,1.093,1.093,0,0,1,.963.026l17.692,9.2-8.41-19.36a1.415,1.415,0,0,1-.024-1.055,1.237,1.237,0,0,1,.7-.726l18.457-7.181-18.457-7.183a1.236,1.236,0,0,1-.7-.726,1.415,1.415,0,0,1,.024-1.055l8.41-19.359-17.692,9.2a1.1,1.1,0,0,1-.963.027,1.259,1.259,0,0,1-.664-.765l-6.563-20.2-6.563,20.2a1.26,1.26,0,0,1-.664.765,1.094,1.094,0,0,1-.963-.027l-17.692-9.2,8.41,19.359a1.41,1.41,0,0,1,.024,1.055,1.236,1.236,0,0,1-.7.726l-18.457,7.183,18.457,7.181a1.239,1.239,0,0,1,.7.726,1.411,1.411,0,0,1-.024,1.055l-8.41,19.36,17.692-9.2A1.107,1.107,0,0,1,379.485,3618.235Z" fill="#006cca"/>
    <path id="Caminho_78" data-name="Caminho 78" d="M387.167,3559.277a1.17,1.17,0,0,1-1.034-.661l-10.947-21.24a1.367,1.367,0,0,1,.45-1.769,1.134,1.134,0,0,1,1.616.493l10.948,21.241a1.365,1.365,0,0,1-.451,1.768A1.091,1.091,0,0,1,387.167,3559.277Z" fill="#006cca"/>
    <path id="Caminho_79" data-name="Caminho 79" d="M387.165,3559.277a1.09,1.09,0,0,1-.581-.168,1.365,1.365,0,0,1-.451-1.768L397.08,3536.1a1.135,1.135,0,0,1,1.616-.493,1.367,1.367,0,0,1,.451,1.769l-10.947,21.24a1.172,1.172,0,0,1-1.035.661Z" fill="#006cca"/>
    <path id="Caminho_80" data-name="Caminho 80" d="M398.114,3663.042a1.172,1.172,0,0,1-1.034-.66l-10.947-21.24a1.366,1.366,0,0,1,.451-1.768,1.133,1.133,0,0,1,1.616.492l10.947,21.239a1.367,1.367,0,0,1-.451,1.769,1.1,1.1,0,0,1-.582.167Z" fill="#006cca"/>
    <path id="Caminho_81" data-name="Caminho 81" d="M376.217,3663.042a1.1,1.1,0,0,1-.581-.167,1.366,1.366,0,0,1-.45-1.769l10.947-21.239a1.133,1.133,0,0,1,1.616-.493,1.366,1.366,0,0,1,.451,1.768l-10.948,21.24a1.171,1.171,0,0,1-1.035.66Z" fill="#006cca"/>
    <path id="Caminho_82" data-name="Caminho 82" d="M424.874,3600.54a1.171,1.171,0,0,1-1.034-.661,1.365,1.365,0,0,1,.451-1.768l19.409-11.98a1.134,1.134,0,0,1,1.617.493,1.365,1.365,0,0,1-.451,1.768l-19.41,11.981A1.1,1.1,0,0,1,424.874,3600.54Z" fill="#006cca"/>
    <path id="Caminho_83" data-name="Caminho 83" d="M444.282,3612.519a1.1,1.1,0,0,1-.582-.167l-19.409-11.979a1.367,1.367,0,0,1-.451-1.769,1.134,1.134,0,0,1,1.616-.493l19.41,11.979a1.367,1.367,0,0,1,.451,1.769A1.172,1.172,0,0,1,444.282,3612.519Z" fill="#006cca"/>
    <path id="Caminho_84" data-name="Caminho 84" d="M330.05,3612.519a1.17,1.17,0,0,1-1.034-.66,1.366,1.366,0,0,1,.45-1.769l19.41-11.979a1.134,1.134,0,0,1,1.616.493,1.366,1.366,0,0,1-.451,1.769l-19.41,11.979a1.09,1.09,0,0,1-.581.167Z" fill="#006cca"/>
    <path id="Caminho_85" data-name="Caminho 85" d="M349.457,3600.54a1.1,1.1,0,0,1-.581-.167l-19.41-11.981a1.365,1.365,0,0,1-.45-1.768,1.132,1.132,0,0,1,1.615-.493l19.41,11.98a1.364,1.364,0,0,1,.451,1.768,1.17,1.17,0,0,1-1.035.661Z" fill="#006cca"/>
    <path id="Caminho_86" data-name="Caminho 86" d="M435.3,3636.264a1.085,1.085,0,0,1-.32-.048l-21.466-6.547a1.319,1.319,0,0,1-.824-1.6,1.176,1.176,0,0,1,1.462-.9l21.466,6.548a1.316,1.316,0,0,1,.824,1.6,1.208,1.208,0,0,1-1.142.947Z" fill="#006cca"/>
    <path id="Caminho_87" data-name="Caminho 87" d="M419.812,3653.207a1.209,1.209,0,0,1-1.142-.95l-5.984-23.489a1.318,1.318,0,0,1,.824-1.6,1.176,1.176,0,0,1,1.462.9l5.984,23.49a1.316,1.316,0,0,1-.824,1.6,1.086,1.086,0,0,1-.32.049Z" fill="#006cca"/>
    <path id="Caminho_88" data-name="Caminho 88" d="M360.5,3571.362a1.077,1.077,0,0,1-.32-.048l-21.466-6.548a1.317,1.317,0,0,1-.824-1.6,1.176,1.176,0,0,1,1.462-.9l21.465,6.548a1.317,1.317,0,0,1,.825,1.6A1.208,1.208,0,0,1,360.5,3571.362Z" fill="#006cca"/>
    <path id="Caminho_89" data-name="Caminho 89" d="M360.5,3571.362a1.208,1.208,0,0,1-1.142-.949l-5.984-23.491a1.317,1.317,0,0,1,.825-1.6,1.174,1.174,0,0,1,1.461.9l5.984,23.491a1.316,1.316,0,0,1-.825,1.6A1.079,1.079,0,0,1,360.5,3571.362Z" fill="#006cca"/>
    <path id="Caminho_90" data-name="Caminho 90" d="M354.52,3653.207a1.071,1.071,0,0,1-.319-.049,1.316,1.316,0,0,1-.825-1.6l5.984-23.49a1.176,1.176,0,0,1,1.461-.9,1.317,1.317,0,0,1,.825,1.6l-5.984,23.489a1.208,1.208,0,0,1-1.142.95Z" fill="#006cca"/>
    <path id="Caminho_91" data-name="Caminho 91" d="M339.036,3636.264a1.208,1.208,0,0,1-1.142-.949,1.317,1.317,0,0,1,.824-1.6l21.466-6.549a1.176,1.176,0,0,1,1.462.9,1.317,1.317,0,0,1-.825,1.6l-21.465,6.547a1.071,1.071,0,0,1-.32.05Z" fill="#006cca"/>
    <path id="Caminho_92" data-name="Caminho 92" d="M413.83,3571.362a1.077,1.077,0,0,1-.32-.048,1.318,1.318,0,0,1-.824-1.6l5.984-23.491a1.176,1.176,0,0,1,1.462-.9,1.316,1.316,0,0,1,.824,1.6l-5.984,23.491A1.209,1.209,0,0,1,413.83,3571.362Z" fill="#006cca"/>
    <path id="Caminho_93" data-name="Caminho 93" d="M413.828,3571.362a1.208,1.208,0,0,1-1.142-.949,1.317,1.317,0,0,1,.824-1.6l21.466-6.548a1.174,1.174,0,0,1,1.462.9,1.317,1.317,0,0,1-.824,1.6l-21.466,6.548a1.078,1.078,0,0,1-.32.049Z" fill="#006cca"/>
    <path id="Caminho_94" data-name="Caminho 94" d="M448.814,3600.54h-123.3a1.3,1.3,0,0,1,0-2.6h123.3a1.3,1.3,0,0,1,0,2.6Z" fill="#006cca"/>
    <path id="Caminho_95" data-name="Caminho 95" d="M387.166,3668a1.247,1.247,0,0,1-1.186-1.3V3531.78a1.191,1.191,0,1,1,2.373,0V3666.7a1.246,1.246,0,0,1-1.187,1.3Z" fill="#006cca"/>
    <path id="Caminho_96" data-name="Caminho 96" d="M430.758,3648.241a1.133,1.133,0,0,1-.839-.38l-87.183-95.4a1.385,1.385,0,0,1,0-1.836,1.115,1.115,0,0,1,1.677,0l87.183,95.4a1.387,1.387,0,0,1,0,1.836,1.133,1.133,0,0,1-.838.38Z" fill="#006cca"/>
    <path id="Caminho_97" data-name="Caminho 97" d="M343.575,3648.241a1.136,1.136,0,0,1-.839-.38,1.385,1.385,0,0,1,0-1.836l87.183-95.4a1.115,1.115,0,0,1,1.677,0,1.387,1.387,0,0,1,0,1.836l-87.183,95.4A1.133,1.133,0,0,1,343.575,3648.241Z" fill="#006cca"/>
  </g>
</svg>
