<svg xmlns="http://www.w3.org/2000/svg" width="302.648" height="331.187" viewBox="0 0 302.648 331.187"><defs><style>.a{fill:#dedede;}</style></defs><path class="a" d="M1859.946,2929.281a2.886,2.886,0,0,1-2.692-2.079l-17.44-53.661-47,24.451a2.677,2.677,0,0,1-3.246-.615,3.347,3.347,0,0,1-.561-3.553l22.342-51.434-49.035-19.082a3.233,3.233,0,0,1,0-5.891l49.038-19.084L1789,2746.9a3.348,3.348,0,0,1,.561-3.554,2.678,2.678,0,0,1,3.246-.613l47,24.451,17.439-53.659a2.783,2.783,0,0,1,5.384,0l17.437,53.659,47-24.451a2.665,2.665,0,0,1,3.245.613,3.346,3.346,0,0,1,.561,3.554l-22.343,51.435,49.036,19.084a3.233,3.233,0,0,1,0,5.891l-49.035,19.082,22.342,51.434a3.344,3.344,0,0,1-.561,3.553,2.671,2.671,0,0,1-3.245.615l-47-24.451-17.437,53.661A2.887,2.887,0,0,1,1859.946,2929.281Zm-18.5-63.178a2.666,2.666,0,0,1,1.094.239,3.029,3.029,0,0,1,1.6,1.841l15.808,48.641,15.8-48.641a3.034,3.034,0,0,1,1.6-1.841,2.641,2.641,0,0,1,2.32.064l42.606,22.164-20.253-46.623a3.4,3.4,0,0,1-.058-2.54,2.984,2.984,0,0,1,1.682-1.75l44.449-17.295-44.449-17.3a2.98,2.98,0,0,1-1.682-1.748,3.4,3.4,0,0,1,.058-2.54l20.253-46.623-42.606,22.162a2.64,2.64,0,0,1-2.32.065,3.029,3.029,0,0,1-1.6-1.84l-15.8-48.639-15.808,48.639a3.024,3.024,0,0,1-1.6,1.84,2.625,2.625,0,0,1-2.32-.065l-42.607-22.162,20.253,46.623a3.4,3.4,0,0,1,.059,2.54,2.98,2.98,0,0,1-1.682,1.748l-44.45,17.3,44.45,17.295a2.984,2.984,0,0,1,1.682,1.75,3.4,3.4,0,0,1-.059,2.54l-20.253,46.623,42.607-22.164A2.642,2.642,0,0,1,1841.446,2866.1Z" transform="translate(-1708.621 -2654.767)"/><g transform="translate(-1708.621 -2654.767)"><path class="a" d="M1859.948,2724.114a2.821,2.821,0,0,1-2.491-1.59l-26.365-51.154a3.29,3.29,0,0,1,1.084-4.259,2.73,2.73,0,0,1,3.892,1.188l26.367,51.153a3.29,3.29,0,0,1-1.086,4.259A2.642,2.642,0,0,1,1859.948,2724.114Z"/><path class="a" d="M1859.942,2724.114a2.636,2.636,0,0,1-1.4-.4,3.289,3.289,0,0,1-1.086-4.259l26.364-51.153a2.731,2.731,0,0,1,3.892-1.188,3.289,3.289,0,0,1,1.085,4.259l-26.363,51.154A2.823,2.823,0,0,1,1859.942,2724.114Z"/><path class="a" d="M1886.312,2974.015a2.82,2.82,0,0,1-2.491-1.591l-26.364-51.151a3.289,3.289,0,0,1,1.086-4.259,2.729,2.729,0,0,1,3.892,1.188l26.363,51.151a3.29,3.29,0,0,1-1.085,4.259A2.662,2.662,0,0,1,1886.312,2974.015Z"/><path class="a" d="M1833.577,2974.015a2.664,2.664,0,0,1-1.4-.4,3.291,3.291,0,0,1-1.084-4.259l26.365-51.151a2.729,2.729,0,0,1,3.892-1.188,3.29,3.29,0,0,1,1.086,4.259l-26.367,51.151A2.818,2.818,0,0,1,1833.577,2974.015Z"/></g><g transform="translate(-1708.621 -2654.767)"><path class="a" d="M1950.759,2823.489a2.819,2.819,0,0,1-2.491-1.591,3.289,3.289,0,0,1,1.085-4.259l46.745-28.852a2.727,2.727,0,0,1,3.891,1.188,3.288,3.288,0,0,1-1.084,4.257l-46.746,28.854A2.639,2.639,0,0,1,1950.759,2823.489Z"/><path class="a" d="M1997.5,2852.339a2.641,2.641,0,0,1-1.4-.4l-46.745-28.85a3.289,3.289,0,0,1-1.085-4.259,2.731,2.731,0,0,1,3.891-1.188l46.746,28.85a3.291,3.291,0,0,1,1.084,4.259A2.818,2.818,0,0,1,1997.5,2852.339Z"/><path class="a" d="M1722.391,2852.339a2.819,2.819,0,0,1-2.491-1.591,3.289,3.289,0,0,1,1.086-4.259l46.744-28.85a2.731,2.731,0,0,1,3.892,1.188,3.29,3.29,0,0,1-1.085,4.259l-46.745,28.85A2.645,2.645,0,0,1,1722.391,2852.339Z"/><path class="a" d="M1769.131,2823.489a2.642,2.642,0,0,1-1.4-.4l-46.744-28.854a3.286,3.286,0,0,1-1.086-4.257,2.729,2.729,0,0,1,3.892-1.188l46.745,28.852a3.29,3.29,0,0,1,1.085,4.259A2.819,2.819,0,0,1,1769.131,2823.489Z"/></g><g transform="translate(-1708.621 -2654.767)"><path class="a" d="M1975.856,2909.525a2.579,2.579,0,0,1-.769-.116l-51.7-15.768a3.172,3.172,0,0,1-1.985-3.85,2.829,2.829,0,0,1,3.52-2.17l51.7,15.767a3.172,3.172,0,0,1,1.985,3.85A2.91,2.91,0,0,1,1975.856,2909.525Z"/><path class="a" d="M1938.568,2950.327a2.91,2.91,0,0,1-2.751-2.286l-14.412-56.571a3.169,3.169,0,0,1,1.985-3.849,2.829,2.829,0,0,1,3.52,2.17l14.411,56.57a3.17,3.17,0,0,1-1.985,3.849A2.571,2.571,0,0,1,1938.568,2950.327Z"/><path class="a" d="M1795.733,2753.22a2.568,2.568,0,0,1-.768-.116l-51.7-15.77a3.171,3.171,0,0,1-1.985-3.851,2.83,2.83,0,0,1,3.519-2.17l51.7,15.771a3.169,3.169,0,0,1,1.985,3.849A2.909,2.909,0,0,1,1795.733,2753.22Z"/><path class="a" d="M1795.731,2753.22a2.907,2.907,0,0,1-2.751-2.287l-14.412-56.573a3.173,3.173,0,0,1,1.985-3.849,2.831,2.831,0,0,1,3.521,2.17l14.41,56.574a3.171,3.171,0,0,1-1.985,3.849A2.564,2.564,0,0,1,1795.731,2753.22Z"/></g><g transform="translate(-1708.621 -2654.767)"><path class="a" d="M1781.323,2950.327a2.588,2.588,0,0,1-.77-.117,3.171,3.171,0,0,1-1.985-3.849l14.412-56.57a2.83,2.83,0,0,1,3.519-2.17,3.17,3.17,0,0,1,1.985,3.849l-14.41,56.571A2.91,2.91,0,0,1,1781.323,2950.327Z"/><path class="a" d="M1744.034,2909.525a2.909,2.909,0,0,1-2.751-2.287,3.173,3.173,0,0,1,1.985-3.85l51.7-15.767a2.829,2.829,0,0,1,3.519,2.17,3.172,3.172,0,0,1-1.985,3.85l-51.7,15.768A2.568,2.568,0,0,1,1744.034,2909.525Z"/><path class="a" d="M1924.159,2753.22a2.579,2.579,0,0,1-.769-.116,3.172,3.172,0,0,1-1.985-3.849l14.412-56.574a2.83,2.83,0,0,1,3.519-2.17,3.172,3.172,0,0,1,1.985,3.849l-14.411,56.573A2.909,2.909,0,0,1,1924.159,2753.22Z"/><path class="a" d="M1924.156,2753.22a2.909,2.909,0,0,1-2.751-2.287,3.169,3.169,0,0,1,1.985-3.849l51.7-15.771a2.83,2.83,0,0,1,3.52,2.17,3.17,3.17,0,0,1-1.985,3.851l-51.7,15.77A2.575,2.575,0,0,1,1924.156,2753.22Z"/></g><path class="a" d="M2008.412,2823.489H1711.478a3.139,3.139,0,0,1,0-6.253h296.934a3.139,3.139,0,0,1,0,6.253Z" transform="translate(-1708.621 -2654.767)"/><path class="a" d="M1859.946,2985.954a3,3,0,0,1-2.857-3.126V2657.894a2.869,2.869,0,1,1,5.714,0v324.934A3,3,0,0,1,1859.946,2985.954Z" transform="translate(-1708.621 -2654.767)"/><path class="a" d="M1964.927,2938.368a2.727,2.727,0,0,1-2.02-.915L1752.943,2707.69a3.336,3.336,0,0,1,0-4.42,2.684,2.684,0,0,1,4.04,0l209.964,229.762a3.34,3.34,0,0,1,0,4.421A2.726,2.726,0,0,1,1964.927,2938.368Z" transform="translate(-1708.621 -2654.767)"/><path class="a" d="M1754.963,2938.368a2.724,2.724,0,0,1-2.02-.915,3.337,3.337,0,0,1,0-4.421l209.964-229.762a2.684,2.684,0,0,1,4.04,0,3.338,3.338,0,0,1,0,4.42l-209.964,229.763A2.726,2.726,0,0,1,1754.963,2938.368Z" transform="translate(-1708.621 -2654.767)"/></svg>