<svg xmlns="http://www.w3.org/2000/svg" viewBox="0 0 208 196"><defs><style>.cls-1{fill:#285124;}</style></defs><title>logo-icon</title><g id="Camada_2" data-name="Camada 2"><g id="Camada_1-2" data-name="Camada 1"><path class="cls-1" d="M205.78,46.29c-2-2.3-5.14-3.13-8.39-2.95.35-3.92-.53-7.8-3.18-10.07-2.92-2.48-7.26-2.41-11.19-.92a9.58,9.58,0,0,0-2.93-5.42c-2.21-1.88-5.26-2.26-8.32-1.71-1.38-3.17-3.63-5.76-6.62-6.52a8.51,8.51,0,0,0-5,.37,8.51,8.51,0,0,0-4-2.47,7,7,0,0,0-1.2-.11c-1.34-3.56-3.72-6.53-7-7.36-2.82-.72-5.77.33-8.33,2.25-2.1-3.38-5.18-5.94-8.69-6a8.87,8.87,0,0,0-5.57,2.18c-2-2.68-4.75-4.6-7.77-4.63a8.7,8.7,0,0,0-5.31,2c-2.07-2.85-4.89-4.9-8-4.93a.8.8,0,0,1-.5,0c-3.14,0-6,2.08-8,4.93a8.7,8.7,0,0,0-5.31-2c-3,0-5.73,2-7.77,4.63A8.87,8.87,0,0,0,77.07,5.4c-3.51,0-6.59,2.6-8.69,6-2.56-1.92-5.51-3-8.33-2.25-3.24.83-5.62,3.8-7,7.36a7,7,0,0,0-1.2.11,8.51,8.51,0,0,0-4,2.47,8.51,8.51,0,0,0-5-.37c-3,.76-5.24,3.35-6.62,6.52-3.06-.55-6.11-.17-8.32,1.71A9.58,9.58,0,0,0,25,32.35c-3.93-1.49-8.27-1.56-11.19.92-2.65,2.27-3.53,6.15-3.18,10.07-3.25-.18-6.39.65-8.39,2.95-4.31,4.93-1.81,14.57,2.95,19a11.31,11.31,0,0,0,15.29.23c19.54,15,59.28,17.75,76,18.22l.4,1-.07,5.65-1.14,2.79.25.66.9,2.14-.07,6.57-1.2,2.68,1.13,2.56-.09,8-1.21,2.7,1.15,2.59-.1,7.9-1.24,2.79,1.18,2.68-.1,7.91-1.2,2.69,1.14,2.58-.09,7.93-1.24,2.78,1.17,2.65L96,169l-1.23,2.75,1.17,2.63-.1,7.86L94.57,185l1.18,2.67-.08,6.9L72,196h63.73l-23.3-1.44-.08-7.05,1-2.66-1.08-2.64-.09-8,1-2.62-1.07-2.6-.1-8.1,1-2.58-1-2.57-.1-8.21,1-2.5-1-2.49-.1-8.28,1-2.52-1-2.49-.1-8.16,1-2.63-1.07-2.61-.1-8.16,1-2.51-1-2.5-.08-6.61,1.07-2.8-1.14-2.79-.07-5.65.4-1c16.75-.47,56.49-3.2,76-18.22a11.31,11.31,0,0,0,15.29-.23C207.59,60.86,210.09,51.22,205.78,46.29ZM95.4,61.53c.38,0,.72.07,1.08.11l.67,1.74-.07,5.77-.13.32c-2.63-.59-5.81-1.44-9.29-2.59A20.61,20.61,0,0,0,95.4,61.53Zm-15,6.84A20.63,20.63,0,0,0,84,68c2.18.8,4.29,1.48,6.26,2.05-3.63-.39-7.73-1-12-1.85C79,68.23,79.7,68.37,80.45,68.37ZM68.34,64.43a20.24,20.24,0,0,0,4,2.31c-1.73-.46-3.46-1-5.18-1.57C67.54,64.92,68,64.71,68.34,64.43ZM42.82,63.05c.14.13.29.24.43.36-.16-.1-.32-.19-.48-.3ZM22,64a12.41,12.41,0,0,0,1.17-1.75,14.8,14.8,0,0,0,2.33,3,11.31,11.31,0,0,0,16-.42C54.57,73.5,71.66,78.37,84.69,81,65.59,79.58,37.21,75.52,22,64ZM96.51,80.81c-10.65-1.53-30.4-5.31-46.66-13.62a19.45,19.45,0,0,0,14.8-.6c11.62,4.29,24.2,5.69,31.94,6.12L97,73.83,97,79.73Zm68.67-17.76,0,.06-.48.3C164.89,63.29,165,63.18,165.18,63.05Zm-25.52,1.38c.38.28.8.49,1.2.74-1.72.58-3.45,1.11-5.18,1.57A20.24,20.24,0,0,0,139.66,64.43ZM124,68a20.63,20.63,0,0,0,3.54.41c.75,0,1.46-.14,2.19-.21-4.26.88-8.36,1.46-12,1.85C119.72,69.44,121.83,68.76,124,68Zm-13.16-4.58.67-1.74c.36,0,.7-.06,1.08-.11a20.61,20.61,0,0,0,7.74,5.35c-3.48,1.15-6.66,2-9.29,2.59l-.13-.32Zm.64,17.43-.44-1.08-.07-5.9.43-1.12c7.74-.43,20.32-1.83,31.94-6.12a19.45,19.45,0,0,0,14.8.6C141.89,75.5,122.14,79.28,111.49,80.81Zm11.82.18c13-2.62,30.12-7.49,43.26-16.2a11.31,11.31,0,0,0,16,.42,14.8,14.8,0,0,0,2.33-3A12.41,12.41,0,0,0,186.05,64C170.79,75.52,142.41,79.58,123.31,81Z"/></g></g></svg>