<svg xmlns="http://www.w3.org/2000/svg" viewBox="0 0 272 112"><defs><style>.cls-1{fill:#285124;}</style></defs><title>logo-text</title><g id="Camada_2" data-name="Camada 2"><g id="Camada_1-2" data-name="Camada 1"><path class="cls-1" d="M125,33.86q4.27,0,4.27,3.26,0,.18-.13,8.16L129,49.12v.09q0,12.7,2.22,15.43H145q-2.57-2.05-2.57-17.4l.22-7q0-8.52-8.55-10.57,8.5-2.64,8.5-10.09V11.91q0-5.88-4.29-8.61A18.49,18.49,0,0,0,128.17.58h-17v64H125Zm0-25.07c2.81,0,4.23,1.12,4.23,3.35V22.7c0,2.26-1.42,3.4-4.23,3.4Zm51.43,55.76H149.52V.58H176.2V8.79H163.25V26.1h11.69v7.76H163.25V56.35h13.13Zm15.71,0H181.36V.58H199l6.28,33.19L210.76.58h18.4v64H216.9V28.64l-7.15,35.91h-9.46l-8.2-35.91ZM250,47.38h6.1l2.32,17.17H272L261.71.58H244.29L234,64.55h13.61Zm3-28,2,19.09h-3.85ZM201.27,74.77c2.68,0,1.51,2.25-.86,2.25C199.05,76.92,201.07,75.55,201.27,74.77Zm65.21,10c-6.55,4.74-11.88,5.87-17.21,5.87a7.11,7.11,0,0,1-1.8-.25,6.74,6.74,0,0,0,.38-2.29c0-4.11-8.5-6.65-8.5-9.53a2,2,0,0,1,.43-1.13l.47-.49s.66-1-1-1.07a76.46,76.46,0,0,1-10.75,8.74v0l-.12,0a36.65,36.65,0,0,1-20.75,6.36c-4.63,0-6.89-1.42-6.8-4.4A6.4,6.4,0,0,1,201,85c.35-.72-.46-.82-1.22-.2-5.89,3.49-16.07,7.77-26.59,7.77-3.58,0-4.86-1.17-4.9-2.88A7.34,7.34,0,0,1,169.4,86h0a13.71,13.71,0,0,0,4.33.73c2,0,5.57-1.22,5.57-4.21,0-1.26-.9-2.39-2.83-2.39-2.92,0-6.06,2-7.93,4.68-5.27,3.87-12.84,6.76-19.3,6.76-8.16,0-5.76-11.63-10.61-11.63-3.92,0-9.68,11-15,22.38,1.79-6.41,3.25-12.42,5.09-19.21,0,0,.24-1-1.32-.39-.8.54-2,1.47-2.88,2v0l0,0a34.36,34.36,0,0,1-19.78,6.85c-8.25,0-6.74-9.68-6.74-9.68.09-1.22-1.42-.2-1.42-.2-1.46,3.86-4.81,7.82-7.12,7.82-.62,0-.94-.44-.94-1.17,0-3.27,5.89-9.09,9.53-9.09.51,0,.8.14.85.39.14,1,1.27,0,1.41-.29A2,2,0,0,0,98,77.75C94.32,77.75,87,84.45,87,88.31c0,1.76.8,2.64,2.36,2.64,2.22,0,5.14-2.69,7.08-5.91.33,3.37,1.88,8,8.2,8,4.06,0,11.91-1.12,20.53-7l.06,0c.42-.25,1-.64,1.51-1-2.46,9.19-4.16,16.61-7.37,26.29.57,1.42,1.23.59,1.33.49,2.54-6.06,13.68-30.3,17.93-30.3,3.3,0,1.55,11.63,10.61,11.63,5.45,0,12.67-2.43,18.06-5.66a7.78,7.78,0,0,0-.41,2.34c0,2.59,1.75,4.35,6.32,4.35,10.24,0,20.05-3.89,26.16-7.31,0,3.91,2.68,5.79,8.21,5.79A41,41,0,0,0,229.1,86v0h0a84.63,84.63,0,0,0,8.87-6.8c.71,3.52,8.44,5.67,8.44,9A5.59,5.59,0,0,1,246.1,90c-3.25-1.27-6.22-4-9.53-4-2.83,0-5.8,1.52-5.8,4.89,0,2.74,2.12,5,6.75,5,3.06,0,7.36-1.12,9.29-4.15a8.12,8.12,0,0,0,2.46.39c5.56,0,11-1.27,18.11-6.16C267.52,83.86,266.48,84.79,266.48,84.79Zm-90-3.23c1,0,1.41.44,1.41.93,0,1.91-2.64,2.74-4.15,2.74a11.43,11.43,0,0,1-3.39-.54A8.63,8.63,0,0,1,176.48,81.56Zm61,12.86c-3.68,0-5.33-1.71-5.33-3.57,0-2.39,2.21-3.42,4.38-3.42,2.93,0,5.71,2.44,8.82,3.81C243.65,93.49,240.06,94.42,237.52,94.42ZM178.1,77.08a35.15,35.15,0,0,0,5.62-3.34s1-.93.9,1.17a41.3,41.3,0,0,1-5.73,3.35C178.37,78.26,178,78,178.1,77.08ZM87.9,59.23V41q11.17.18,14.57-2.44t3.4-8.89V11.91q0-6.87-4.16-9.1T89,.58H74.52v42l-.19-.16a11.29,11.29,0,0,0-1.09.44,11.63,11.63,0,0,0-2.37,1.42A35.88,35.88,0,0,0,67,48a10.3,10.3,0,0,0,1.87-5.91V.58H55.11V42.83q0,1.8-2.28,1.8t-2.31-1.8l0-42.25H36.76V42.2a9.46,9.46,0,0,0,4.81,8.58h0c-2.07.66-4,1.34-5.32,1.86-.73.28-1.42.62-2.13.92-1,.44-2.09.83-3.06,1.32a16.41,16.41,0,0,0,.21-2.5V44.21A12.87,12.87,0,0,0,29,36.63Q26.63,33.28,18,24.85q-4.63-4.73-4.63-8.3l-.27-4.15q0-3.7,2.45-3.7c1.39,0,2.09.64,2.09,1.92V22.39H30.13V11.33Q30.13,0,15.9,0,0,0,0,12.45v7.18a11,11,0,0,0,2.14,6.56q2.13,3,10.9,11.68,4.53,4.7,4.53,8.17v7.58c0,1.46-.83,2.19-2.5,2.19s-2.6-.73-2.6-2.19V39H0V53.53q0,11.61,15.37,11.6c1.05,0,2-.07,3-.16a15.36,15.36,0,0,0-3.12,9c0,7.18,5.1,9.53,9.81,9.53,0,0,1.32-.15,0-1.47-4.05,0-8.39-2-8.39-8.06,0-8.46,8.32-15.22,18.75-19.51a69.29,69.29,0,0,1,25.08-5.17c1.83,0,3.68.1,5.56.2a60.2,60.2,0,0,0-4.85,8.82c-1.71,3.67-3.29,7.64-4.82,11.56-1.27,3.22-2.59,6.5-4,9.63-3.49-1.81-5.29-4.7-5.29-7.48a9.6,9.6,0,0,1,9.58-9.34c1.75-1.37,0-1.46,0-1.46A11.08,11.08,0,0,0,45.7,72c0,3.27,2.07,6.69,6.09,8.8C47.59,90.07,42.63,97.64,36,97.64a10.79,10.79,0,0,1-2.78-.34c-1.7.83-.38,1.37-.38,1.37a11.13,11.13,0,0,0,3.16.44c7.69,0,12.74-7.87,17.12-17.69a21.6,21.6,0,0,0,8.21,1.46c12.51,0,27.23-5.47,27.23-19.49A13.59,13.59,0,0,0,87.9,59.23Zm0-49.5c3.06,0,4.58,1.13,4.58,3.39V28.46c0,2.26-1.52,3.39-4.58,3.39ZM68.87,48a15.08,15.08,0,0,1,3.66-3.24,9.84,9.84,0,0,1,2-1v5.4c-.14,0-.29,0-.43-.08-1.55-.34-3.15-.61-4.78-.81-.15,0-.29,0-.44-.07Zm-7.56,33.4a20.28,20.28,0,0,1-7.59-1.32c1.37-3.13,2.64-6.4,4-9.68,1.74-4.37,3.47-8.72,5.3-12.63a52.4,52.4,0,0,1,4.61-8.19,44.45,44.45,0,0,1,8.26,1.51c5.17,1.51,9.3,4.14,10.72,8.64.14.52.27,1,.38,1.6a13.26,13.26,0,0,1,.17,2C87.12,76.34,73.16,81.42,61.31,81.42Z"/></g></g></svg>