<svg xmlns="http://www.w3.org/2000/svg" viewBox="0 0 379.36 196.68"><defs><style>.cls-1{fill:#285124;}</style></defs><title>logo-green</title><g id="Camada_2" data-name="Camada 2"><g id="Layer_2" data-name="Layer 2"><path class="cls-1" d="M192.86,43.77C191,41.6,188,40.81,185,41c.33-3.7-.49-7.38-3-9.52-2.73-2.34-6.8-2.28-10.49-.87a9,9,0,0,0-2.74-5.12c-2.07-1.78-4.93-2.14-7.79-1.62-1.3-3-3.41-5.45-6.21-6.17a7.77,7.77,0,0,0-4.68.36,8,8,0,0,0-3.8-2.35,7,7,0,0,0-1.12-.1c-1.25-3.36-3.48-6.17-6.52-7C136,8,133.25,9,130.85,10.76c-2-3.2-4.86-5.62-8.15-5.65a8.22,8.22,0,0,0-5.21,2.06c-1.92-2.54-4.46-4.35-7.29-4.38a8.13,8.13,0,0,0-5,1.87C103.29,2,100.65,0,97.7,0a.9.9,0,0,1-.46,0c-2.95,0-5.59,2-7.53,4.66a8.14,8.14,0,0,0-5-1.87c-2.83,0-5.36,1.84-7.28,4.38a8.22,8.22,0,0,0-5.22-2.06c-3.29,0-6.18,2.45-8.15,5.65C61.69,9,58.92,8,56.28,8.63c-3,.79-5.27,3.6-6.52,7a7.08,7.08,0,0,0-1.13.1A8,8,0,0,0,44.84,18a7.77,7.77,0,0,0-4.68-.36c-2.8.72-4.91,3.17-6.21,6.17-2.86-.52-5.72-.16-7.79,1.62a8.9,8.9,0,0,0-2.74,5.12c-3.69-1.41-7.76-1.47-10.49.87-2.49,2.14-3.31,5.82-3,9.52-3-.17-6,.62-7.86,2.79-4,4.67-1.69,13.77,2.77,18A10.5,10.5,0,0,0,19.17,62c18.31,14.2,55.56,16.78,71.26,17.23l.37,1-.06,5.34-1.07,2.64.24.63.84,2L90.68,97l-1.12,2.53L90.62,102l-.09,7.58-1.13,2.55,1.07,2.45L90.39,122l-1.17,2.64,1.1,2.53-.08,7.48-1.13,2.55,1.07,2.44-.09,7.5-1.16,2.62,1.1,2.51-.09,7.45-1.15,2.6,1.09,2.49-.08,7.43-1.17,2.64,1.11,2.53L89.66,184l-22.17,1.36h59.73L105.38,184l-.08-6.67,1-2.51-1-2.5-.09-7.58.94-2.48-1-2.46-.09-7.66.92-2.44-1-2.43-.09-7.76.89-2.37-.95-2.35-.09-7.83.9-2.38-1-2.36-.09-7.71.94-2.49-1-2.47-.09-7.71.9-2.38-1-2.36-.08-6.25,1-2.65-1.07-2.64-.07-5.34.37-1c15.71-.45,52.95-3,71.27-17.23a10.5,10.5,0,0,0,14.32-.21C194.55,57.54,196.9,48.44,192.86,43.77ZM89.41,58.18l1,.1.63,1.65L91,65.38l-.12.31c-2.46-.56-5.44-1.36-8.71-2.45A19.38,19.38,0,0,0,89.41,58.18Zm-14,6.46a18,18,0,0,0,3.31-.38c2.05.75,4,1.4,5.87,1.94-3.4-.37-7.24-.92-11.23-1.75A17.35,17.35,0,0,0,75.4,64.64ZM64.05,60.92a18.62,18.62,0,0,0,3.73,2.19q-2.44-.66-4.86-1.49C63.3,61.38,63.69,61.18,64.05,60.92Zm-23.92-1.3.4.34c-.14-.1-.3-.19-.44-.28Zm-19.56.9a11.93,11.93,0,0,0,1.1-1.66,13.76,13.76,0,0,0,2.18,2.8,10.54,10.54,0,0,0,15-.4C51.14,69.5,67.16,74.1,79.37,76.58,61.47,75.25,34.88,71.41,20.57,60.52ZM90.45,76.41c-10-1.45-28.49-5-43.73-12.88A18.41,18.41,0,0,0,53,64.64,18.61,18.61,0,0,0,60.59,63c10.89,4,22.68,5.37,29.94,5.78l.4,1.06-.07,5.58Zm64.36-16.79,0,.06-.45.28C154.54,59.84,154.68,59.74,154.81,59.62Zm-23.92,1.3c.36.26.75.46,1.12.7q-2.41.83-4.85,1.49A18.9,18.9,0,0,0,130.89,60.92Zm-14.67,3.34a18.25,18.25,0,0,0,3.32.38,17.35,17.35,0,0,0,2-.19c-4,.83-7.84,1.38-11.23,1.75C112.2,65.66,114.18,65,116.22,64.26Zm-12.33-4.33.63-1.65,1-.1a19.3,19.3,0,0,0,7.26,5.06c-3.27,1.09-6.25,1.89-8.71,2.45l-.12-.31Zm.6,16.48-.41-1L104,69.81l.4-1.06c7.25-.41,19-1.73,29.93-5.78a18.69,18.69,0,0,0,7.57,1.67,18.45,18.45,0,0,0,6.31-1.11C133,71.39,114.47,75,104.49,76.41Zm11.08.17c12.21-2.48,28.23-7.08,40.54-15.32a10.52,10.52,0,0,0,15,.4,13.8,13.8,0,0,0,2.19-2.8,11.93,11.93,0,0,0,1.1,1.66C160.06,71.41,133.46,75.25,115.57,76.58Z"/><path class="cls-1" d="M238.19,119.9c2.74,0,4.1,1.07,4.1,3.2,0,.11,0,2.79-.12,8l-.09,3.77V135q0,12.48,2.14,15.16H257.4q-2.46-2-2.47-17.09l.21-6.88q0-8.39-8.2-10.39,8.16-2.59,8.16-9.91V98.33c0-3.85-1.37-6.68-4.12-8.46a17.44,17.44,0,0,0-9.69-2.67H225v62.85h13.19Zm0-24.64c2.7,0,4.06,1.1,4.06,3.3v10.37c0,2.23-1.36,3.34-4.06,3.34Z"/><polygon class="cls-1" points="287.56 141.99 274.96 141.99 274.96 119.9 286.18 119.9 286.18 112.27 274.96 112.27 274.96 95.26 287.39 95.26 287.39 87.2 261.77 87.2 261.77 150.05 287.56 150.05 287.56 141.99"/><polygon class="cls-1" points="302.65 114.77 310.52 150.05 319.6 150.05 326.47 114.77 326.47 150.05 338.23 150.05 338.23 87.2 320.57 87.2 315.33 119.81 309.31 87.2 292.35 87.2 292.35 150.05 302.65 150.05 302.65 114.77"/><path class="cls-1" d="M358.21,133.18h5.86l2.22,16.87h13.07L369.48,87.2H352.76l-9.87,62.85H356Zm2.9-27.48L363,124.45h-3.69Z"/><path class="cls-1" d="M310.63,162.31c2.27,0,3.4-2.21.82-2.21C311.27,160.86,309.32,162.21,310.63,162.31Z"/><path class="cls-1" d="M374.06,169.94c-6.29,4.66-11.41,5.76-16.53,5.76a6.49,6.49,0,0,1-1.72-.24,6.76,6.76,0,0,0,.36-2.25c0-4-8.15-6.53-8.15-9.37a2,2,0,0,1,.41-1.1l.45-.48s.63-1-1-1.06a73.86,73.86,0,0,1-10.32,8.6h0l-.11,0a34.65,34.65,0,0,1-19.93,6.25c-4.44,0-6.61-1.4-6.52-4.32a6.61,6.61,0,0,1,.22-1.63c.34-.71-.44-.81-1.16-.2-5.65,3.43-15.43,7.63-25.53,7.63-3.44,0-4.66-1.15-4.71-2.82a7.35,7.35,0,0,1,1-3.64h0a12.84,12.84,0,0,0,4.15.71c1.9,0,5.35-1.2,5.35-4.13,0-1.24-.86-2.35-2.72-2.35-2.8,0-5.82,1.92-7.61,4.6-5.06,3.8-12.33,6.64-18.53,6.64-7.83,0-5.53-11.43-10.19-11.43-3.76,0-9.28,10.85-14.45,22,1.72-6.29,3.13-12.2,4.9-18.87,0,0,.22-1-1.27-.38-.77.53-1.91,1.44-2.77,1.92v0l-.05,0a32.45,32.45,0,0,1-19,6.73c-7.93,0-6.48-9.51-6.48-9.51.1-1.2-1.35-.19-1.35-.19-1.41,3.79-4.63,7.68-6.84,7.68-.59,0-.91-.43-.91-1.15,0-3.22,5.66-8.93,9.15-8.93.5,0,.77.14.82.38.13,1,1.22.05,1.35-.29a1.91,1.91,0,0,0-2.17-1.53c-3.49,0-10.51,6.57-10.51,10.37,0,1.73.77,2.59,2.27,2.59,2.12,0,4.93-2.64,6.79-5.81.32,3.32,1.81,7.83,7.88,7.83,3.89,0,11.43-1.11,19.7-6.93l.06,0a16.35,16.35,0,0,0,1.45-1c-2.36,9-4,16.32-7.07,25.83.54,1.39,1.18.58,1.27.48,2.44-5.95,13.13-29.77,17.21-29.77,3.17,0,1.5,11.43,10.19,11.43,5.23,0,12.17-2.39,17.34-5.57a7.88,7.88,0,0,0-.39,2.31c0,2.54,1.67,4.27,6.06,4.27,9.83,0,19.25-3.82,25.11-7.18-.05,3.84,2.57,5.69,7.88,5.69a38.64,38.64,0,0,0,20.65-6.44v0h0a81,81,0,0,0,8.52-6.68c.68,3.46,8.1,5.57,8.1,8.84a5.68,5.68,0,0,1-.31,1.82c-3.13-1.25-6-3.94-9.15-3.94-2.72,0-5.57,1.49-5.57,4.81,0,2.68,2,4.94,6.47,4.94,2.95,0,7.07-1.1,8.93-4.08a7.71,7.71,0,0,0,2.35.38c5.35,0,10.6-1.24,17.4-6C375.06,169,374.06,169.94,374.06,169.94Zm-86.4-3.17c.95,0,1.36.43,1.36.91,0,1.88-2.54,2.69-4,2.69a11,11,0,0,1-3.26-.53A8.21,8.21,0,0,1,287.66,166.77Zm58.59,12.63c-3.53,0-5.11-1.68-5.11-3.5,0-2.36,2.13-3.36,4.21-3.36,2.81,0,5.48,2.39,8.47,3.74C352.14,178.49,348.7,179.4,346.25,179.4Z"/><path class="cls-1" d="M290,163.52a39.28,39.28,0,0,0,5.5-3.28c.14-2.07-.86-1.16-.86-1.16a33.16,33.16,0,0,1-5.4,3.29C289.13,163.24,289.47,163.52,290,163.52Z"/><path class="cls-1" d="M202.63,144.83V126.91q10.73.18,14-2.39t3.27-8.74V98.33q0-6.75-4-8.94T203.64,87.2H189.78v41.22a1.45,1.45,0,0,0-.18-.16,8.58,8.58,0,0,0-1,.43,11.33,11.33,0,0,0-2.28,1.39,36.14,36.14,0,0,0-3.7,3.74,10.37,10.37,0,0,0,1.79-5.81V87.2H171.15v41.51q0,1.77-2.19,1.77t-2.22-1.77l0-41.51H153.53v40.89a9.34,9.34,0,0,0,4.62,8.43h0c-2,.65-3.8,1.32-5.11,1.83-.7.28-1.36.6-2.05.9-1,.43-2,.82-2.93,1.3a17.23,17.23,0,0,0,.2-2.45v-8a12.91,12.91,0,0,0-2.24-7.45q-2.25-3.3-10.52-11.58-4.44-4.65-4.44-8.15l-.26-4.08c0-2.42.79-3.64,2.35-3.64q2,0,2,1.89v11.57h12V97.76q0-11.13-13.67-11.13-15.25,0-15.26,12.23v7a11.08,11.08,0,0,0,2.05,6.45q2.05,2.94,10.47,11.48,4.35,4.6,4.35,8v7.45c0,1.44-.8,2.15-2.4,2.15s-2.49-.71-2.49-2.15V124.89h-12v14.34q0,11.4,14.76,11.39c1,0,1.94-.07,2.85-.15a15.31,15.31,0,0,0-3,8.81c0,7.06,4.9,9.37,9.42,9.37,0,0,1.27-.15,0-1.45-3.89,0-8.06-1.92-8.06-7.92,0-8.31,8-15,18-19.18A65.21,65.21,0,0,1,176.29,135c1.76,0,3.53.1,5.34.2a60.35,60.35,0,0,0-4.66,8.66c-1.63,3.61-3.15,7.51-4.62,11.36-1.22,3.17-2.49,6.38-3.81,9.46-3.35-1.78-5.07-4.61-5.07-7.35a9.32,9.32,0,0,1,9.2-9.17c1.67-1.35,0-1.44,0-1.44a10.75,10.75,0,0,0-10.56,10.61c0,3.22,2,6.58,5.85,8.64-4,9.13-8.79,16.57-15.18,16.57a10.44,10.44,0,0,1-2.67-.33c-1.63.81-.36,1.34-.36,1.34a10.61,10.61,0,0,0,3,.43c7.39,0,12.23-7.73,16.44-17.38a20.38,20.38,0,0,0,7.88,1.44c12,0,26.14-5.38,26.14-19.16A13.7,13.7,0,0,0,202.63,144.83Zm0-48.65q4.4,0,4.4,3.33v15.08q0,3.33-4.4,3.33Zm-18.27,37.63a14.41,14.41,0,0,1,3.51-3.18,9.19,9.19,0,0,1,1.91-.95V135c-.13,0-.28-.05-.42-.08a44.17,44.17,0,0,0-4.58-.79c-.14,0-.28-.06-.42-.07Zm-7.26,32.82a19,19,0,0,1-7.29-1.3c1.32-3.07,2.54-6.29,3.81-9.51,1.67-4.29,3.33-8.57,5.09-12.41a51.27,51.27,0,0,1,4.42-8,42,42,0,0,1,7.93,1.47c5,1.49,8.93,4.07,10.29,8.49.13.51.26,1,.36,1.58a12.84,12.84,0,0,1,.17,2C201.88,161.63,188.47,166.63,177.1,166.63Z"/></g></g></svg>