<svg xmlns="http://www.w3.org/2000/svg" viewBox="0 0 208 120"><defs><style>.cls-1{fill:none;}.cls-2{fill:#1f6cc3;}.cls-3{fill:#fff;}</style></defs><title>text-snow</title><g id="Camada_2" data-name="Camada 2"><g id="snow"><rect class="cls-1" width="208" height="120"/><g id="snow-text"><path class="cls-2" d="M179.77,76.2a13.7,13.7,0,0,0-1.84-.15c.26-2-.73-3.58-2.16-4.92-.39-.36-.85-.66-1.2-1A2.28,2.28,0,0,1,174,69a3.94,3.94,0,0,0-3.16-3.52,5.59,5.59,0,0,0-3.14.15,4.51,4.51,0,0,0-3.36,3.45c-.12.61-.17,1.24-.27,1.92l-.33-.4a6.08,6.08,0,0,0-3.17-2.19A12.22,12.22,0,0,0,155,68a11.79,11.79,0,0,0-7.47,3.78,2.64,2.64,0,0,1-.29.23l-1.75-2.41c3.33-1.75,4-2.62,5.37-4.56a3.58,3.58,0,0,0,.7-2.74,5.72,5.72,0,0,0-2-3.34,4.18,4.18,0,0,0-3.5-1.2c-.49.06-.53-.15-.43-.55.33-1.29.68-2.57.95-3.87a7.83,7.83,0,0,0,0-4.16,6.23,6.23,0,0,0-4-3.79,18.11,18.11,0,0,0-3.7-1,6.11,6.11,0,0,0-4.53.82.7.7,0,0,1-.66,0A10.21,10.21,0,0,0,125.42,43a5.12,5.12,0,0,0-3.73,2c-.24.34-.43.2-.71,0a11.15,11.15,0,0,0-2.34-1.38,10.64,10.64,0,0,0-7,.09A4.69,4.69,0,0,0,108.18,47c-.33,1.24-.71,2.46-1.09,3.68a8.06,8.06,0,0,1-.42,1c-.18-.37-.26-.57-.35-.75a8.38,8.38,0,0,0-5.1-4.44,13.78,13.78,0,0,0-7.64,0,19,19,0,0,0-11.36,7.87c-.29.43-.59.86-1,1.41-.12-.34-.2-.53-.26-.73a11.7,11.7,0,0,0-.48-1.66C79.43,51,77.39,50.09,75,50a10.22,10.22,0,0,0-5.69,1.46,2.93,2.93,0,0,1-2.84.37,11.63,11.63,0,0,0-7.55.1A3.91,3.91,0,0,0,56,54.75c-.18.7-.41,1.39-.63,2.08a2.61,2.61,0,0,1-.24.47c-.84-1.13-1.64-2.19-2.4-3.27-.09-.13,0-.47.13-.64a18.23,18.23,0,0,0,1.86-2.48,10.88,10.88,0,0,0,.8-7.6,9.57,9.57,0,0,0-5.2-6.77,16.83,16.83,0,0,0-4.69-1.4,13.1,13.1,0,0,0-8.38,1.32c-3.58,1.86-5,5.12-5.24,8.95a15.17,15.17,0,0,0,1.25,6.64c.24.6.09.83-.5.94-3.23.63-5.21,2.76-6.41,5.64a13,13,0,0,0-.62,8A15.23,15.23,0,0,0,36.24,78.42a15.93,15.93,0,0,0,12.26-.84c.67-.31,1.3-.72,2-1.1l.28.57a4.32,4.32,0,0,0,2.56,2.22,12.81,12.81,0,0,0,8.88-.41A3.54,3.54,0,0,0,64.67,76a7,7,0,0,1,.27-.91,5.42,5.42,0,0,0,.69.91A10.77,10.77,0,0,0,68,77.67c2.69,1.1,5.37.55,8-.4a14.61,14.61,0,0,0,5.08-3.42c.27-.26.47-.45.93-.21a22.67,22.67,0,0,0,2.62,1.16,16.09,16.09,0,0,0,1.82.46c-.72.95-1.44,1.77-2,2.69a7.45,7.45,0,0,0-1.14,4.9,5.87,5.87,0,0,0,7.48,5c.34-.09.67-.21,1.09-.35.05,1,.1,2,.15,2.9l.15,2.82a3.14,3.14,0,0,0,3.71,3.29,8.68,8.68,0,0,0,4.85-1.92,2.94,2.94,0,0,0,1.31-2.08c.08-1.2,0-2.41,0-3.61,0-.6.14-.9.76-1.05A14.5,14.5,0,0,0,108,85.46c.21-.15.43-.28.72-.47l.21.71a5.71,5.71,0,0,0,6.39,4.66,8.62,8.62,0,0,0,5.19-2,1,1,0,0,1,1.11-.2,4.66,4.66,0,0,0,3.25.14,5.67,5.67,0,0,1,.85-.13c-.13,1.3-.22,2.48-.38,3.65-.3,2.3.66,3.71,2.9,4a9.8,9.8,0,0,0,5.22-.88,2.77,2.77,0,0,0,1.75-2.24c.25-1.82.52-3.63.71-5.46.07-.66.31-.82.94-.85a10.48,10.48,0,0,0,5.72-1.82,2.42,2.42,0,0,1,.77-.34c1.3-.36,2.6-.71,3.91-1a1,1,0,0,1,.76.08,11.1,11.1,0,0,0,6.56,2.22,14.11,14.11,0,0,0,9.5-2.43.77.77,0,0,1,.24-.07A5.64,5.64,0,0,0,167,85.52a11.42,11.42,0,0,0,4.89.89,13.29,13.29,0,0,0,10-5.09,3.36,3.36,0,0,0,.72-2A3.4,3.4,0,0,0,179.77,76.2Zm-136.2-.3A12.61,12.61,0,0,1,28.66,65.56,9,9,0,0,1,30.37,58a4.4,4.4,0,0,1,5.11-1.7c1,.36,1.32.79,1.2,1.8-.19,1.5-.63,3-.75,4.49a13,13,0,0,0,.19,3.79,3.73,3.73,0,0,0,3.55,2.93,7.1,7.1,0,0,0,2.3-.1A3.79,3.79,0,0,0,45,65.44c.2-2.89-1.29-5-3.05-7-1.45-1.69-3-3.32-4.33-5.08a11.85,11.85,0,0,1-2.52-7.84,7.33,7.33,0,0,1,6.67-7.26,12.36,12.36,0,0,1,6.46.78,6.9,6.9,0,0,1,4.4,6.23c.25,4.2-1.35,6.34-5.41,7.56a2,2,0,0,0-.22.1c1.28,1.31,2.64,2.49,3.77,3.87C56.18,63.34,53.66,73.92,43.57,75.9ZM39.05,64.47c.07-1.26.21-2.51.31-3.76l.28-.06a6.15,6.15,0,0,1,.64.61c.89,1.14,1.75,2.3,1.64,3.88a.91.91,0,0,1-.91,1C39.59,66.23,39,65.85,39.05,64.47ZM85,71.7A4.7,4.7,0,0,1,82,68.78c-.07-.2-.15-.39-.26-.67-.57.73-1.06,1.41-1.61,2-2,2.33-4.3,4.27-7.46,4.8a10.22,10.22,0,0,1-2.59.08,3,3,0,0,1-2.84-3.19,44.89,44.89,0,0,1,.91-5.47c.39-1.91.87-3.81,1.28-5.72.19-.85-.21-1.28-1-1-1.73.66-3.36,1.48-3.86,3.54-.91,3.76-1.88,7.5-2.75,11.27a2.13,2.13,0,0,1-1.66,1.77,10.15,10.15,0,0,1-5.3.21c-1-.25-1.6-.52-1.19-1.95C55.46,68.3,57.18,62,59,55.8a1.33,1.33,0,0,1,.66-.77,8.8,8.8,0,0,1,5.88-.27c1.11.36,1.2.58.88,1.67-.1.36-.19.73-.32,1.23.81-.66,1.51-1.26,2.24-1.81a11.92,11.92,0,0,1,5.12-2.59,6.56,6.56,0,0,1,2.38,0c1.78.35,2.44,2,2.21,4a31.69,31.69,0,0,1-.84,4c-.52,2.09-1.11,4.16-1.6,6.25a4.5,4.5,0,0,0,.07,1.71.55.55,0,0,0,.88.41,8,8,0,0,0,1.78-1.21,15.48,15.48,0,0,0,3.92-6.66c1.87-6.74,6.19-11,13.09-12.51a11.15,11.15,0,0,1,4.23,0,5.64,5.64,0,0,1,4.56,5.24,15.34,15.34,0,0,1-1.58,8.08c-.18.41-.38.83-.63,1.39a6.28,6.28,0,0,0,.83-.12,8.15,8.15,0,0,0,4.23-3.26A10.05,10.05,0,0,0,108.52,57c.8-3,1.69-6,2.59-9A2,2,0,0,1,112,47a7.28,7.28,0,0,1,6-.31c1,.36,1.11.84.84,1.82-1.06,3.94-2.13,7.88-3.17,11.82a8.37,8.37,0,0,0-.2,1.87c0,.82.47,1.17,1.17.74a5.86,5.86,0,0,0,1.93-1.69,29.94,29.94,0,0,0,2.56-4.93c1.08-2.84,2-5.75,2.87-8.66a1.92,1.92,0,0,1,1.76-1.54,8.34,8.34,0,0,1,4.87.68c1.24.62,1.4,1.06.91,2.35a68.51,68.51,0,0,0-3.37,10.55,16.28,16.28,0,0,0-.23,2.52c0,.5.14.95.75.95A1.33,1.33,0,0,0,130,62a4.51,4.51,0,0,1,.05-1.22,2,2,0,0,1,2.18-1.52.58.58,0,0,0,.72-.38A27.16,27.16,0,0,0,136,48.22a.78.78,0,0,1,.83-.81,8.71,8.71,0,0,1,6.27,2,1.77,1.77,0,0,1,.54,1.65,20.54,20.54,0,0,1-5,11.95c-.13.15-.24.3-.39.51,3.15,1.34,5.6.75,7.56-2,.63-.88.82-.89,1.61-.16,1.23,1.12,1.26,1.38.23,2.65a7.65,7.65,0,0,1-8,2.87c-1.23-.25-2.45-.59-3.65-.94a1.43,1.43,0,0,0-1.3.16,12.92,12.92,0,0,1-8.88,1.63c-2.68-.33-4-1.94-4.24-4.63,0-.14,0-.29,0-.63-.25.31-.41.49-.55.69a12.33,12.33,0,0,1-9.18,5.19,7.1,7.1,0,0,1-2.15-.19c-1.54-.38-2.33-1.48-2.48-3.27,0-.21,0-.42,0-.75l-.83.67a12.14,12.14,0,0,1-6.57,2.43,2,2,0,0,0-1,.45,15.49,15.49,0,0,1-4.32,2.75,19,19,0,0,1-5.6,1.68A8.84,8.84,0,0,1,85,71.7Zm43.26.09a15.89,15.89,0,0,0-15.3,2.67c-.45-1-.86-1.88-1.32-2.89.23,0,.49-.13.76-.17A15.46,15.46,0,0,0,120,68.56a.66.66,0,0,1,.61,0,9.86,9.86,0,0,0,7,2.37C128.51,71,128.56,71,128.22,71.79Zm-17.87,6.28a10,10,0,0,1-6,6.64,21.65,21.65,0,0,1-3.78,1.22c-.74.18-1.06.4-1,1.22.12,1.47.14,2.95.15,4.42a1.37,1.37,0,0,1-.35,1,6.13,6.13,0,0,1-3.61,1.54c-.84.06-1-.12-1.07-1-.15-2.92-.35-5.84-.38-8.76a16.86,16.86,0,0,1,.8-5.85,4.37,4.37,0,0,1,4.65-2.87c.53.07.7.25.55.8a20.45,20.45,0,0,0-.65,6.71,5.91,5.91,0,0,0,5.09-4.88,3.23,3.23,0,0,0-3.43-4,12.08,12.08,0,0,0-3.47.59,11.52,11.52,0,0,0-5.53,3.46,3.11,3.11,0,0,0-.85,3.06,2.59,2.59,0,0,0,.52,1,1,1,0,0,1,.09,1.31c-.94,1.81-2.38,2.45-4.12,1.83a3.66,3.66,0,0,1-2.2-4.25,8.94,8.94,0,0,1,3.63-5.09A24.34,24.34,0,0,1,101.57,71a14.26,14.26,0,0,1,4.74.26C109.77,72,111.24,74.63,110.35,78.07Zm69.36,2a10.76,10.76,0,0,1-6.83,3.78,9.45,9.45,0,0,1-4.51-.43c-1.91-.73-2.72-2.36-1.83-4.19a22.4,22.4,0,0,1,2.56-3.75c.77-1,.75-1.55-.19-2.21-1.41,2-2.65,4.06-4.19,5.87-3.35,4-7.76,4.59-12.55,3.53a5.55,5.55,0,0,1-4-3c-.13,0-.23.06-.29.12a7.9,7.9,0,0,1-5.28,2.1,1.7,1.7,0,0,0-.85.29,8.13,8.13,0,0,1-7.24,1.59l-.54-.09c-.15,1-.31,1.92-.43,2.86-.25,1.82-.45,3.64-.74,5.45a1.4,1.4,0,0,1-.75.92,16.67,16.67,0,0,1-3.12.59c-1,.07-1.27-.23-1.17-1.26.28-3,.59-6,.9-9l-.69.67a8.06,8.06,0,0,1-3.67,2.1,2.34,2.34,0,0,1-3.16-1.81c0-.15-.09-.31-.17-.62l-.38.73a6.31,6.31,0,0,1-5.57,3.7c-2.11.17-3.64-1.26-4-3.49a8.23,8.23,0,0,1,2-6.59,12,12,0,0,1,9.36-4.5,10.22,10.22,0,0,1,4.35.53c1,.4,1.09.73.54,1.65a7.7,7.7,0,0,1-.6.81,1.15,1.15,0,0,1-1.35.36,7.68,7.68,0,0,0-6.49.64,6.19,6.19,0,0,0-2.35,6.09c.08.35.4.88.64.9a1.41,1.41,0,0,0,1.13-.53c.6-1.17,1.09-2.4,1.59-3.63a4.49,4.49,0,0,0,.32-1.26,1.52,1.52,0,0,1,1.6-1.52,29,29,0,0,1,3,0c.56,0,.74.37.65,1a26.1,26.1,0,0,0-.3,3.31c0,1,.54,1.34,1.38.73a7.37,7.37,0,0,0,3.16-5.08c.23-1.62.55-3.23.9-4.83a1.12,1.12,0,0,1,.65-.75,18.64,18.64,0,0,1,3.71-.35c1.17,0,1.24.29,1.15,1.45.47-.32.89-.63,1.33-.92a7.23,7.23,0,0,1,3.74-1.22,3.57,3.57,0,0,1,4,3.84,9.6,9.6,0,0,1-1.23,4.71l-.34.64a4.81,4.81,0,0,0,4.3-3.65,7.88,7.88,0,0,1,6.62-5.82,11,11,0,0,1,5,.16,3.6,3.6,0,0,1,2.76,2.51,3.88,3.88,0,0,1-2.11,4,9.07,9.07,0,0,1-4.89,1.1c-.55,0-1.09,0-1.7,0a2,2,0,0,0,1.57,1.65c2.94.83,6.53.27,8.62-2.45a48.38,48.38,0,0,0,3.09-4.88,1.34,1.34,0,0,0,0-1.06c-.51-1.26-.46-2.13.3-2.88a3.34,3.34,0,0,1,3.43-.69,1.52,1.52,0,0,1,.87,1.92,1,1,0,0,0,.42,1.21,32.51,32.51,0,0,1,2.72,2.39c1.26,1.29,1.16,2.26-.13,3.53a18.23,18.23,0,0,0-2.28,2.61c-.7,1-.32,1.6,1,1.62a6.86,6.86,0,0,0,5.18-2.37c.35-.35.66-.52,1.13-.23C180.28,79.11,180.32,79.38,179.71,80.06ZM89.66,65.42c0-.24,0-.48,0-.73a22.41,22.41,0,0,1,2.5-8.54,5.39,5.39,0,0,1,1.71-1.81c1-.65,1.89-.17,2.13,1a12.39,12.39,0,0,1-.52,5.13,2.4,2.4,0,0,1-1.21,1.81,2.91,2.91,0,0,0-1.35,3.19,1.23,1.23,0,0,1-.31.83,1.72,1.72,0,0,1-.73.46C90.6,67.33,89.76,66.81,89.66,65.42Zm49.44,9.87a22.76,22.76,0,0,1-.43,2.83.7.7,0,0,1-.31.37c-1.19.75-1.32,1.05-1,2.42a2.73,2.73,0,0,1-2.52,0,.62.62,0,0,1-.27-.54,32.28,32.28,0,0,1,.85-4.16c.17-.55.86-1,1.38-1.37a3.29,3.29,0,0,1,1.13-.44C138.61,74.2,139.15,74.56,139.1,75.29Zm14.68.76A3.56,3.56,0,0,1,156,73.28a1,1,0,0,1,.91.14,1.1,1.1,0,0,1,0,.91A3.2,3.2,0,0,1,153.78,76.05ZM47.85,46.61a9.15,9.15,0,0,1-2.16,4.19c-.32.38-.58.41-.94,0a16.38,16.38,0,0,1-3.51-5.59,1,1,0,0,1,.59-1.45c.73-.29,1.5-.46,2.32-.71a17.27,17.27,0,0,1,2.46.8A2.32,2.32,0,0,1,47.85,46.61Z"/><path class="cls-3" d="M88.82,72.08a19,19,0,0,0,5.6-1.68,15.49,15.49,0,0,0,4.32-2.75,2,2,0,0,1,1-.45,12.14,12.14,0,0,0,6.57-2.43l.83-.67c0,.33,0,.54,0,.75.15,1.79.94,2.89,2.48,3.27a7.1,7.1,0,0,0,2.15.19A12.33,12.33,0,0,0,121,63.12c.14-.2.3-.38.55-.69,0,.34,0,.49,0,.63.23,2.69,1.56,4.3,4.24,4.63a12.92,12.92,0,0,0,8.88-1.63,1.43,1.43,0,0,1,1.3-.16c1.2.35,2.42.69,3.65.94a7.65,7.65,0,0,0,8-2.87c1-1.27,1-1.53-.23-2.65-.79-.73-1-.72-1.61.16-2,2.76-4.41,3.35-7.56,2,.15-.21.26-.36.39-.51a20.54,20.54,0,0,0,5-11.95,1.77,1.77,0,0,0-.54-1.65,8.71,8.71,0,0,0-6.27-2,.78.78,0,0,0-.83.81,27.16,27.16,0,0,1-3.12,10.7.58.58,0,0,1-.72.38A2,2,0,0,0,130,60.82,4.51,4.51,0,0,0,130,62a1.33,1.33,0,0,1-1.33,1.12c-.61,0-.77-.45-.75-.95a16.28,16.28,0,0,1,.23-2.52,68.51,68.51,0,0,1,3.37-10.55c.49-1.29.33-1.73-.91-2.35a8.34,8.34,0,0,0-4.87-.68A1.92,1.92,0,0,0,124,47.65c-.87,2.91-1.79,5.82-2.87,8.66a29.94,29.94,0,0,1-2.56,4.93,5.86,5.86,0,0,1-1.93,1.69c-.7.43-1.19.08-1.17-.74a8.37,8.37,0,0,1,.2-1.87c1-3.94,2.11-7.88,3.17-11.82.27-1,.11-1.46-.84-1.82a7.28,7.28,0,0,0-6,.31,2,2,0,0,0-.87,1.06c-.9,3-1.79,6-2.59,9a10.05,10.05,0,0,1-1.58,3.53,8.15,8.15,0,0,1-4.23,3.26,6.28,6.28,0,0,1-.83.12c.25-.56.45-1,.63-1.39a15.34,15.34,0,0,0,1.58-8.08,5.64,5.64,0,0,0-4.56-5.24,11.15,11.15,0,0,0-4.23,0C88.4,50.69,84.08,55,82.21,61.73a15.48,15.48,0,0,1-3.92,6.66,8,8,0,0,1-1.78,1.21.55.55,0,0,1-.88-.41,4.5,4.5,0,0,1-.07-1.71c.49-2.09,1.08-4.16,1.6-6.25a31.69,31.69,0,0,0,.84-4c.23-2-.43-3.65-2.21-4a6.56,6.56,0,0,0-2.38,0,11.92,11.92,0,0,0-5.12,2.59c-.73.55-1.43,1.15-2.24,1.81.13-.5.22-.87.32-1.23.32-1.09.23-1.31-.88-1.67a8.8,8.8,0,0,0-5.88.27,1.33,1.33,0,0,0-.66.77C57.18,62,55.46,68.3,53.68,74.54c-.41,1.43.2,1.7,1.19,1.95a10.15,10.15,0,0,0,5.3-.21,2.13,2.13,0,0,0,1.66-1.77c.87-3.77,1.84-7.51,2.75-11.27.5-2.06,2.13-2.88,3.86-3.54.81-.32,1.21.11,1,1-.41,1.91-.89,3.81-1.28,5.72a44.89,44.89,0,0,0-.91,5.47A3,3,0,0,0,70.11,75,10.22,10.22,0,0,0,72.7,75c3.16-.53,5.45-2.47,7.46-4.8.55-.64,1-1.32,1.61-2,.11.28.19.47.26.67A4.7,4.7,0,0,0,85,71.7,8.84,8.84,0,0,0,88.82,72.08Zm3.34-15.93a5.39,5.39,0,0,1,1.71-1.81c1-.65,1.89-.17,2.13,1a12.39,12.39,0,0,1-.52,5.13,2.4,2.4,0,0,1-1.21,1.81,2.91,2.91,0,0,0-1.35,3.19,1.23,1.23,0,0,1-.31.83,1.72,1.72,0,0,1-.73.46c-1.28.55-2.12,0-2.22-1.36,0-.24,0-.48,0-.73A22.41,22.41,0,0,1,92.16,56.15Zm87.33,22.48c-.47-.29-.78-.12-1.13.23a6.86,6.86,0,0,1-5.18,2.37c-1.27,0-1.65-.58-1-1.62A18.23,18.23,0,0,1,174.51,77c1.29-1.27,1.39-2.24.13-3.53a32.51,32.51,0,0,0-2.72-2.39,1,1,0,0,1-.42-1.21,1.52,1.52,0,0,0-.87-1.92,3.34,3.34,0,0,0-3.43.69c-.76.75-.81,1.62-.3,2.88a1.34,1.34,0,0,1,0,1.06,48.38,48.38,0,0,1-3.09,4.88c-2.09,2.72-5.68,3.28-8.62,2.45a2,2,0,0,1-1.57-1.65c.61,0,1.15,0,1.7,0a9.07,9.07,0,0,0,4.89-1.1,3.88,3.88,0,0,0,2.11-4,3.6,3.6,0,0,0-2.76-2.51,11,11,0,0,0-5-.16,7.88,7.88,0,0,0-6.62,5.82,4.81,4.81,0,0,1-4.3,3.65l.34-.64a9.6,9.6,0,0,0,1.23-4.71,3.57,3.57,0,0,0-4-3.84A7.23,7.23,0,0,0,137.42,72c-.44.29-.86.6-1.33.92.09-1.16,0-1.4-1.15-1.45a18.64,18.64,0,0,0-3.71.35,1.12,1.12,0,0,0-.65.75c-.35,1.6-.67,3.21-.9,4.83a7.37,7.37,0,0,1-3.16,5.08c-.84.61-1.4.31-1.38-.73a26.1,26.1,0,0,1,.3-3.31c.09-.59-.09-.93-.65-1a29,29,0,0,0-3,0,1.52,1.52,0,0,0-1.6,1.52,4.49,4.49,0,0,1-.32,1.26c-.5,1.23-1,2.46-1.59,3.63a1.41,1.41,0,0,1-1.13.53c-.24,0-.56-.55-.64-.9a6.19,6.19,0,0,1,2.35-6.09,7.68,7.68,0,0,1,6.49-.64,1.15,1.15,0,0,0,1.35-.36,7.7,7.7,0,0,0,.6-.81c.55-.92.43-1.25-.54-1.65a10.22,10.22,0,0,0-4.35-.53,12,12,0,0,0-9.36,4.5,8.23,8.23,0,0,0-2,6.59c.32,2.23,1.85,3.66,4,3.49a6.31,6.31,0,0,0,5.57-3.7l.38-.73c.08.31.12.47.17.62a2.34,2.34,0,0,0,3.16,1.81,8.06,8.06,0,0,0,3.67-2.1l.69-.67c-.31,3.06-.62,6-.9,9-.1,1,.12,1.33,1.17,1.26a16.67,16.67,0,0,0,3.12-.59,1.4,1.4,0,0,0,.75-.92c.29-1.81.49-3.63.74-5.45.12-.94.28-1.88.43-2.86l.54.09a8.13,8.13,0,0,0,7.24-1.59,1.7,1.7,0,0,1,.85-.29,7.9,7.9,0,0,0,5.28-2.1c.06-.06.16-.07.29-.12a5.55,5.55,0,0,0,4,3c4.79,1.06,9.2.42,12.55-3.53,1.54-1.81,2.78-3.88,4.19-5.87.94.66,1,1.2.19,2.21a22.4,22.4,0,0,0-2.56,3.75c-.89,1.83-.08,3.46,1.83,4.19a9.45,9.45,0,0,0,4.51.43,10.76,10.76,0,0,0,6.83-3.78C180.32,79.38,180.28,79.11,179.49,78.63ZM156,73.28a1,1,0,0,1,.91.14,1.1,1.1,0,0,1,0,.91,3.2,3.2,0,0,1-3.17,1.72A3.56,3.56,0,0,1,156,73.28Zm-17.37,4.84a.7.7,0,0,1-.31.37c-1.19.75-1.32,1.05-1,2.42a2.73,2.73,0,0,1-2.52,0,.62.62,0,0,1-.27-.54,32.28,32.28,0,0,1,.85-4.16c.17-.55.86-1,1.38-1.37a3.29,3.29,0,0,1,1.13-.44c.72-.18,1.26.18,1.21.91A22.76,22.76,0,0,1,138.67,78.12ZM47,52.88a2,2,0,0,1,.22-.1c4.06-1.22,5.66-3.36,5.41-7.56A6.9,6.9,0,0,0,48.25,39a12.36,12.36,0,0,0-6.46-.78,7.33,7.33,0,0,0-6.67,7.26,11.85,11.85,0,0,0,2.52,7.84C39,55.07,40.52,56.7,42,58.39c1.76,2,3.25,4.16,3.05,7A3.79,3.79,0,0,1,42,69.17a7.1,7.1,0,0,1-2.3.1,3.73,3.73,0,0,1-3.55-2.93,13,13,0,0,1-.19-3.79c.12-1.51.56-3,.75-4.49.12-1-.25-1.44-1.2-1.8A4.4,4.4,0,0,0,30.37,58a9,9,0,0,0-1.71,7.6A12.61,12.61,0,0,0,43.57,75.9c10.09-2,12.61-12.56,7.22-19.15C49.66,55.37,48.3,54.19,47,52.88Zm-2.27-2.06a16.38,16.38,0,0,1-3.51-5.59,1,1,0,0,1,.59-1.45c.73-.29,1.5-.46,2.32-.71a17.27,17.27,0,0,1,2.46.8,2.32,2.32,0,0,1,1.24,2.74,9.15,9.15,0,0,1-2.16,4.19C45.37,51.18,45.11,51.21,44.75,50.82Zm65.6,27.25a10,10,0,0,1-6,6.64,21.65,21.65,0,0,1-3.78,1.22c-.74.18-1.06.4-1,1.22.12,1.47.14,2.95.15,4.42a1.37,1.37,0,0,1-.35,1,6.13,6.13,0,0,1-3.61,1.54c-.84.06-1-.12-1.07-1-.15-2.92-.35-5.84-.38-8.76a16.86,16.86,0,0,1,.8-5.85,4.37,4.37,0,0,1,4.65-2.87c.53.07.7.25.55.8a20.45,20.45,0,0,0-.65,6.71,5.91,5.91,0,0,0,5.09-4.88,3.23,3.23,0,0,0-3.43-4,12.08,12.08,0,0,0-3.47.59,11.52,11.52,0,0,0-5.53,3.46,3.11,3.11,0,0,0-.85,3.06,2.59,2.59,0,0,0,.52,1,1,1,0,0,1,.09,1.31c-.94,1.81-2.38,2.45-4.12,1.83a3.66,3.66,0,0,1-2.2-4.25,8.94,8.94,0,0,1,3.63-5.09A24.34,24.34,0,0,1,101.57,71a14.26,14.26,0,0,1,4.74.26C109.77,72,111.24,74.63,110.35,78.07ZM127.65,71c.86,0,.91.09.57.84a15.89,15.89,0,0,0-15.3,2.67c-.45-1-.86-1.88-1.32-2.89.23,0,.49-.13.76-.17A15.46,15.46,0,0,0,120,68.56a.66.66,0,0,1,.61,0A9.86,9.86,0,0,0,127.65,71Zm-88.6-6.48c.07-1.26.21-2.51.31-3.76l.28-.06a6.15,6.15,0,0,1,.64.61c.89,1.14,1.75,2.3,1.64,3.88a.91.91,0,0,1-.91,1C39.59,66.23,39,65.85,39.05,64.47Z"/></g></g></g></svg>