<svg xmlns="http://www.w3.org/2000/svg" viewBox="0 0 208 120"><defs><style>.cls-1{fill:none;}.cls-2{fill:#fff;}.cls-3{fill:#030202;}.cls-4{fill:#a26f2a;}</style></defs><title>text-suprema</title><g id="Camada_2" data-name="Camada 2"><g id="suprema"><rect class="cls-1" width="208" height="120"/><g id="suprema-text"><path class="cls-2" d="M18.36,64.12a7.52,7.52,0,0,0,2.15,3.06,12.3,12.3,0,0,0,14.05,1.54,8.86,8.86,0,0,0,4.2-4.42,10.77,10.77,0,0,0,.38-7.46A13.61,13.61,0,0,0,35,50.78L33.69,49.5c.21-.27.44-.2.64-.24a5.35,5.35,0,0,0,4.39-3.94A7.07,7.07,0,0,0,34.53,37a10.42,10.42,0,0,0-5-.63,6.47,6.47,0,0,0-6,4.94,9.82,9.82,0,0,0,.47,5.89,2.48,2.48,0,0,0,.43,1.08,18.85,18.85,0,0,0,2.87,3.84,24.2,24.2,0,0,1,4.35,5.56,3.87,3.87,0,0,1,.4,1.33,4,4,0,0,1-2.77,5.15,6.4,6.4,0,0,1-2.05.08,3.6,3.6,0,0,1-3.4-3,6.89,6.89,0,0,1-.08-2.75c.23-1.22.52-2.42.7-3.64.24-1.68-.53-2.42-2.25-2.26a3.86,3.86,0,0,0-2,.84,6.65,6.65,0,0,0-1.76,2.11A9.45,9.45,0,0,0,18.36,64.12ZM31.93,47.8a14.49,14.49,0,0,1-3.36-5.46.73.73,0,0,1,.29-.94,3.79,3.79,0,0,1,2.55-.7,5.77,5.77,0,0,1,1.13.15c1.94.58,2.63,1.79,2.05,3.71a8.33,8.33,0,0,1-1.92,3.22C32.4,48.07,32.23,48.12,31.93,47.8ZM189.67,61.11c0-.18.14-.28.21-.41a4.37,4.37,0,0,0,.57-3.5c-.23-.76-.64-.89-1.29-.42s-1.17.9-1.74,1.37a19.77,19.77,0,0,1-2.88,2.09c-1.36.73-1.9.47-2.14-1.06a32.5,32.5,0,0,1-.1-5.92,6.09,6.09,0,0,1,1.19-3.68c.26-.36.41-.79.65-1.17a1.22,1.22,0,0,0,.08-1.21,7.06,7.06,0,0,0-3.38-3.62c-.9-.44-1.28-.32-1.93.42-.12.14-.18.47-.46.27-.64-.47-1.43-.36-2.14-.56a9,9,0,0,0-7.56,1.17,12.35,12.35,0,0,0-5.58,7.94,5.72,5.72,0,0,1-2,3.27,13.88,13.88,0,0,1-2.59,2.06c-.27.14-.59.35-.89.1s-.2-.54-.14-.82c.15-.74.33-1.49.51-2.23a25.71,25.71,0,0,0,1.17-7.07,4.14,4.14,0,0,0-3.9-4.21,7.76,7.76,0,0,0-6.44,2.18l-1,.94a4.43,4.43,0,0,0-4.49-4.46,6.21,6.21,0,0,0-4.76,2.12c-.22.22-.35.53-.69.63a8.11,8.11,0,0,0-1.16-2c-1.38-1.64-2.63-1.57-3.77.22a19.79,19.79,0,0,0-3.16,9.33,4.45,4.45,0,0,1-1.38,3,13.87,13.87,0,0,1-6.11,4,7,7,0,0,1-4.28,0,2.5,2.5,0,0,1-1.6-2.32c-.16-1.11.58-1.32,1.27-1.66l1.91-.93a30.88,30.88,0,0,0,4.16-2.25,6.68,6.68,0,0,0,2.69-3.22c1.13-3.17-.51-5.56-3.85-5.58a9.94,9.94,0,0,0-6,2,16,16,0,0,0-6.32,10.57A2.49,2.49,0,0,1,110,58a30.13,30.13,0,0,1-3.17,3.32,4.08,4.08,0,0,1-.78.52c-.61.3-.91.12-.9-.57a6,6,0,0,1,.2-1.4c.66-2.52,1.24-5.07,2-7.54.6-1.81-.22-3.09-1.17-4.4a1.05,1.05,0,0,0-1.48-.31c-.69.37-1.37.77-2,1.19a6.54,6.54,0,0,1-3.21,1A.9.9,0,0,1,98.44,49a5.31,5.31,0,0,0-1.86-2.79,3.31,3.31,0,0,0-3.79-.09A2.68,2.68,0,0,0,91.36,49,4.21,4.21,0,0,0,92.9,51.6a.77.77,0,0,1,.19,1.08,13.13,13.13,0,0,0-1.37,4.1,6.81,6.81,0,0,1-1.55,3.44c-2.13,2.65-4.51,5-7.8,6.1a3.84,3.84,0,0,1-2.19.32l.42-.26c4.12-3,6.58-6.92,6.6-12.13,0-3-1.62-5-4.36-5.47a8.4,8.4,0,0,0-7.77,2.38c-.18.18-.29.44-.6.52a6.84,6.84,0,0,0-1.22-2c-1.46-1.63-3.08-1.35-3.89.67A87.63,87.63,0,0,0,65.51,62.2a1.8,1.8,0,0,1-.42.92,20.15,20.15,0,0,1-2.47,2.33c-.46.33-1,.88-1.54.55s-.27-1-.22-1.55c.32-2.91,1.17-5.73,1.58-8.63a16.9,16.9,0,0,0,.18-4.49A1.38,1.38,0,0,0,61,50a8.62,8.62,0,0,0-2.26.31,2.79,2.79,0,0,0-2.36,3.16,21.58,21.58,0,0,1,0,4.4,20.92,20.92,0,0,1-2.27,6.7,4.35,4.35,0,0,1-1.93,1.91c-1.76.79-3.06-.09-3-2a25.06,25.06,0,0,1,1.37-6.23A13.36,13.36,0,0,0,51,51.85a2.07,2.07,0,0,0-1.93-1.77,8.24,8.24,0,0,0-3.19.42c-.59.19-1,.46-1,1.19a11.07,11.07,0,0,1-.22,1.89c-.57,3.45-.43,7-2,10.31A4.81,4.81,0,0,0,44,69.58a7.81,7.81,0,0,0,10.85-1.47,1.34,1.34,0,0,1,.64-.66,4,4,0,0,0,1.15,2.94,2.56,2.56,0,0,0,2.41.73,9.86,9.86,0,0,0,4.31-1.57c.14-.09.35-.53.57,0,0,.21,0,.42-.06.63a74.44,74.44,0,0,0-.79,7.47,3.81,3.81,0,0,0,2.37,3.82,1.92,1.92,0,0,0,2.86-1.14,5.09,5.09,0,0,0,.19-.77c.94-4.81,1.59-9.66,2.36-14.5a21.6,21.6,0,0,1,3.17-8.34,6.53,6.53,0,0,1,3.81-3,2.25,2.25,0,0,1,2.92,2.13A12.54,12.54,0,0,1,79.47,62a6.9,6.9,0,0,1-4.88,3.8,1.32,1.32,0,0,0-1.29,1.48,2.67,2.67,0,0,0,.32,1.66,2.7,2.7,0,0,0,2.26,1.61,14.76,14.76,0,0,0,6.34-.31,13.75,13.75,0,0,0,8.61-5.69c.48,0,.23.36.23.53a9.18,9.18,0,0,0,.43,3.08,1.23,1.23,0,0,0,1.13,1.12A4.79,4.79,0,0,0,97,66.77a8.72,8.72,0,0,0,0-2.6,22.34,22.34,0,0,1,.65-8.61A4.91,4.91,0,0,1,98,54.12c.32-.46,1-.14,1.47-.26a2.66,2.66,0,0,1,.38-.1l2-.44A22.1,22.1,0,0,0,100,60.39a8,8,0,0,0,.74,5.13,3.18,3.18,0,0,0,3.56,1.57,10,10,0,0,0,5.94-3.75l.58-.66a5.53,5.53,0,0,0,3.64,2.68,12.24,12.24,0,0,0,5.32-.08,15.28,15.28,0,0,0,9.37-5.22c.11-.14.19-.32.49-.32a20.38,20.38,0,0,0,.24,3.74c.26,1.2.91,1.87,1.79,1.62a8.9,8.9,0,0,0,4.22-2.45.82.82,0,0,0,.31-.69,2.73,2.73,0,0,0-.11-1.85,11.74,11.74,0,0,1-.68-3.4,13.67,13.67,0,0,1,3.85-8.83,2.17,2.17,0,0,1,.58-.41c1-.5,1.87,2.29,1.82,2.87a101.2,101.2,0,0,0-.56,10.73,6.55,6.55,0,0,0,.48,2.28,1.42,1.42,0,0,0,2,.93,11.46,11.46,0,0,0,2.88-1.4,2.5,2.5,0,0,0,1.1-1.17,4.18,4.18,0,0,0-.17-2.83,7.3,7.3,0,0,1-.47-3.48,14.62,14.62,0,0,1,2.49-5.49,3.91,3.91,0,0,1,1.39-1.26,1.52,1.52,0,0,1,2.33,1.5,15.38,15.38,0,0,1-.23,2,25.41,25.41,0,0,0-.69,6.9A6.71,6.71,0,0,0,153,62a2.45,2.45,0,0,0,2.29,1.28,8.67,8.67,0,0,0,2.63-.43,12,12,0,0,0,4.92-3.28,7.77,7.77,0,0,0,1,2.06,3.41,3.41,0,0,0,1.24,1.47,9,9,0,0,0,8.6,1.2,6,6,0,0,0,3.43-2.84c.22-.16.32-.08.36.17a5.85,5.85,0,0,0,1.1,2.37,2.54,2.54,0,0,0,2.14,1.35,9.33,9.33,0,0,0,5.53-1.18A7.71,7.71,0,0,0,189.67,61.11Zm-72-10.58A7,7,0,0,1,119,48.65a1.7,1.7,0,0,1,2.32,0A2.25,2.25,0,0,1,120.5,51a33.1,33.1,0,0,1-3.53,2.7A10,10,0,0,1,117.68,50.53Zm59.8-1.66c-.23,1.91-.35,3.82-.45,5.74a5.91,5.91,0,0,1-4.15,5,2.86,2.86,0,0,1-3.78-2.78,10.16,10.16,0,0,1,.49-4.2,12.52,12.52,0,0,1,1.85-3,9.93,9.93,0,0,1,6.33-3A7,7,0,0,1,177.48,48.87Z"/><path class="cls-3" d="M193.2,56.55a3.59,3.59,0,0,0-4.42-2.7,10.11,10.11,0,0,0-2.59,1.62c-.35.24-.6.64-1.05.74-.15-2.13-.11-4.16,1.27-5.91a3.16,3.16,0,0,0,.39-.78,4,4,0,0,0,.28-2.46,9.1,9.1,0,0,0-3.88-5.39,4.7,4.7,0,0,0-4.45-.9,4.52,4.52,0,0,1-2.6,0,9,9,0,0,0-2.82-.32,13.72,13.72,0,0,0-8.59,4,25.09,25.09,0,0,0-2.53,3.11c-.28-.22-.22-.51-.27-.76a6.44,6.44,0,0,0-4.26-5.19,10.24,10.24,0,0,0-8.06.56.65.65,0,0,1-.87-.16,8.07,8.07,0,0,0-9.44-1.28.94.94,0,0,1-1.27-.11,4.63,4.63,0,0,0-7,.9,37.79,37.79,0,0,0-1.93,3.31c-1.69-3-4.39-3.85-7.5-3.52a14.63,14.63,0,0,0-10.31,6.12,6.43,6.43,0,0,1-1.2,1.51,9.3,9.3,0,0,0-1.5-2.65,3.82,3.82,0,0,0-4.17-1.52,9,9,0,0,0-2.49,1.16c-1.27.79-1.28.78-2.13-.38-.09-.13-.18-.26-.28-.38-2.7-3.59-8.1-2.69-10,.26a8.69,8.69,0,0,0-1.06,3.64,6.9,6.9,0,0,0-3.22-2.54,11.58,11.58,0,0,0-9.36.57A1,1,0,0,1,74.48,47,4.81,4.81,0,0,0,66.82,49c-.36,1-.78,2-1.18,3a14.21,14.21,0,0,0-.55-2.27,3.4,3.4,0,0,0-2.24-2.3,7.51,7.51,0,0,0-9.11,3.84l-.18-.6a4.51,4.51,0,0,0-3.4-3.28,10,10,0,0,0-6,.74,2.88,2.88,0,0,0-1.93,2.41c-.18,1.44-.42,2.88-.66,4.5A14.85,14.85,0,0,0,39,50.82c-.23-.27-.26-.43,0-.7a8.52,8.52,0,0,0,2.62-8,9.58,9.58,0,0,0-4.29-6.89,11.56,11.56,0,0,0-4.12-1.54,11.45,11.45,0,0,0-8,1.13c-3.86,2.11-5.1,6.43-4.52,10.5A14.14,14.14,0,0,0,22,49.75a7.53,7.53,0,0,0-5.4,3.37,12.53,12.53,0,0,0,1.15,15.3c3.48,3.78,7.92,5.08,12.92,4.44a13.76,13.76,0,0,0,8.88-4.58s.13,0,.2,0a6.79,6.79,0,0,0,2.86,3.88,11.2,11.2,0,0,0,11.5.56c.24-.12.41-.28.69-.05A6,6,0,0,0,60,73.81c.48-.09.54,0,.51.45-.08,1.11-.13,2.21-.21,3.32-.22,3,1.28,5.06,3.8,6.38a4.67,4.67,0,0,0,6.26-1.37,6.52,6.52,0,0,0,1-3c.42-2.22.77-4.46,1.13-6.7.09-.54.16-.8.8-.4a7,7,0,0,0,3.63,1c4.2,0,8.25-.6,11.8-3.09.4-.29.6-.22.88.16a3.6,3.6,0,0,0,3.25,1.48A7.54,7.54,0,0,0,98.94,69c.31-.45.49-.51,1-.16a5.87,5.87,0,0,0,4.7,1.09,11.66,11.66,0,0,0,5.69-2.58c.28-.24.52-.45,1-.2a10.84,10.84,0,0,0,6.18,1.32,21.9,21.9,0,0,0,9.34-2.69c.55-.32.84-.33,1.13.25a4.29,4.29,0,0,0,4.55,1.73,11.19,11.19,0,0,0,6.2-4.1,6.21,6.21,0,0,0,.22.69c.88,2.13,2.5,3.06,4.39,2.78a9.54,9.54,0,0,0,6.94-4.26c.12.19.23.39.36.59a5.25,5.25,0,0,0,3.39,2.5,10.18,10.18,0,0,0,6.93-1.29c.91-.47,1.35-.49,2.11.24,3.27,3.11,9.07,3.54,13.11,1.38.28-.15.46-.26.73,0a6.06,6.06,0,0,0,4.87,1.84,12.82,12.82,0,0,0,9.25-4A7.78,7.78,0,0,0,193.2,56.55ZM38.76,64.3a8.86,8.86,0,0,1-4.2,4.42,12.3,12.3,0,0,1-14-1.54,7.52,7.52,0,0,1-2.15-3.06,9.45,9.45,0,0,1,.12-8.6,6.65,6.65,0,0,1,1.76-2.11,3.86,3.86,0,0,1,2-.84c1.72-.16,2.49.58,2.25,2.26-.18,1.22-.47,2.42-.7,3.64a6.89,6.89,0,0,0,.08,2.75,3.6,3.6,0,0,0,3.4,3,6.4,6.4,0,0,0,2.05-.08A4,4,0,0,0,32.11,59a3.87,3.87,0,0,0-.4-1.33,24.2,24.2,0,0,0-4.35-5.56,18.85,18.85,0,0,1-2.87-3.84,2.48,2.48,0,0,1-.43-1.08,9.82,9.82,0,0,1-.47-5.89,6.47,6.47,0,0,1,6-4.94,10.42,10.42,0,0,1,5,.63,7.07,7.07,0,0,1,4.19,8.34,5.35,5.35,0,0,1-4.39,3.94c-.2,0-.43,0-.64.24L35,50.78a13.61,13.61,0,0,1,4.12,6.06A10.77,10.77,0,0,1,38.76,64.3ZM26.59,59.63a15.5,15.5,0,0,1,.45-3c.08-.35.23-.41.46-.14a6.15,6.15,0,0,1,1.89,3.63c.05,1-.2,1.25-1.05,1.29-1.34.07-1.69-.17-1.75-1.2C26.58,60,26.59,59.81,26.59,59.63ZM189.88,60.7c-.07.13-.22.23-.21.41a7.71,7.71,0,0,1-3.38,3,9.33,9.33,0,0,1-5.53,1.18A2.54,2.54,0,0,1,178.62,64a5.85,5.85,0,0,1-1.1-2.37c0-.25-.14-.33-.36-.17a6,6,0,0,1-3.43,2.84,9,9,0,0,1-8.6-1.2,3.41,3.41,0,0,1-1.24-1.47,7.77,7.77,0,0,1-1-2.06A12,12,0,0,1,158,62.83a8.67,8.67,0,0,1-2.63.43A2.45,2.45,0,0,1,153,62a6.71,6.71,0,0,1-.87-2.9,25.41,25.41,0,0,1,.69-6.9,15.38,15.38,0,0,0,.23-2,1.52,1.52,0,0,0-2.33-1.5,3.91,3.91,0,0,0-1.39,1.26,14.62,14.62,0,0,0-2.49,5.49,7.3,7.3,0,0,0,.47,3.48,4.18,4.18,0,0,1,.17,2.83,2.5,2.5,0,0,1-1.1,1.17,11.46,11.46,0,0,1-2.88,1.4,1.42,1.42,0,0,1-2-.93,6.55,6.55,0,0,1-.48-2.28,101.2,101.2,0,0,1,.56-10.73c.05-.58-.81-3.37-1.82-2.87a2.17,2.17,0,0,0-.58.41,13.67,13.67,0,0,0-3.85,8.83,11.74,11.74,0,0,0,.68,3.4,2.73,2.73,0,0,1,.11,1.85.82.82,0,0,1-.31.69,8.9,8.9,0,0,1-4.22,2.45c-.88.25-1.53-.42-1.79-1.62a20.38,20.38,0,0,1-.24-3.74c-.3,0-.38.18-.49.32a15.28,15.28,0,0,1-9.37,5.22,12.24,12.24,0,0,1-5.32.08,5.53,5.53,0,0,1-3.64-2.68l-.58.66a10,10,0,0,1-5.94,3.75,3.18,3.18,0,0,1-3.56-1.57,8,8,0,0,1-.74-5.13,22.1,22.1,0,0,1,1.92-7.07l-2,.44a2.66,2.66,0,0,0-.38.1c-.49.12-1.15-.2-1.47.26a4.91,4.91,0,0,0-.37,1.44A22.34,22.34,0,0,0,97,64.17a8.72,8.72,0,0,1,0,2.6,4.79,4.79,0,0,1-4.36,2.49,1.23,1.23,0,0,1-1.13-1.12,9.18,9.18,0,0,1-.43-3.08c0-.17.25-.54-.23-.53a13.75,13.75,0,0,1-8.61,5.69,14.76,14.76,0,0,1-6.34.31,2.7,2.7,0,0,1-2.26-1.61,2.67,2.67,0,0,1-.32-1.66,1.32,1.32,0,0,1,1.29-1.48A6.9,6.9,0,0,0,79.47,62a12.54,12.54,0,0,0,1.32-6.19,2.25,2.25,0,0,0-2.92-2.13,6.53,6.53,0,0,0-3.81,3A21.6,21.6,0,0,0,70.89,65c-.77,4.84-1.42,9.69-2.36,14.5a5.09,5.09,0,0,1-.19.77,1.92,1.92,0,0,1-2.86,1.14,3.81,3.81,0,0,1-2.37-3.82,74.44,74.44,0,0,1,.79-7.47c0-.21,0-.42.06-.63-.22-.49-.43-.05-.57,0a9.86,9.86,0,0,1-4.31,1.57,2.56,2.56,0,0,1-2.41-.73,4,4,0,0,1-1.15-2.94,1.34,1.34,0,0,0-.64.66A7.81,7.81,0,0,1,44,69.58a4.81,4.81,0,0,1-1.42-5.69c1.59-3.3,1.45-6.86,2-10.31a11.07,11.07,0,0,0,.22-1.89c0-.73.42-1,1-1.19a8.24,8.24,0,0,1,3.19-.42A2.07,2.07,0,0,1,51,51.85a13.36,13.36,0,0,1-.45,6.37,25.06,25.06,0,0,0-1.37,6.23c-.07,1.89,1.23,2.77,3,2a4.35,4.35,0,0,0,1.93-1.91,20.92,20.92,0,0,0,2.27-6.7,21.58,21.58,0,0,0,0-4.4,2.79,2.79,0,0,1,2.36-3.16A8.62,8.62,0,0,1,61,50a1.38,1.38,0,0,1,1.6,1.38,16.9,16.9,0,0,1-.18,4.49c-.41,2.9-1.26,5.72-1.58,8.63,0,.53-.31,1.23.22,1.55s1.08-.22,1.54-.55a20.15,20.15,0,0,0,2.47-2.33,1.8,1.8,0,0,0,.42-.92,87.63,87.63,0,0,1,3.85-11.85c.81-2,2.43-2.3,3.89-.67a6.84,6.84,0,0,1,1.22,2c.31-.08.42-.34.6-.52a8.4,8.4,0,0,1,7.77-2.38c2.74.45,4.37,2.49,4.36,5.47,0,5.21-2.48,9.13-6.6,12.13l-.42.26a3.84,3.84,0,0,0,2.19-.32c3.29-1.15,5.67-3.45,7.8-6.1a6.81,6.81,0,0,0,1.55-3.44,13.13,13.13,0,0,1,1.37-4.1.77.77,0,0,0-.19-1.08A4.21,4.21,0,0,1,91.36,49a2.68,2.68,0,0,1,1.43-2.86,3.31,3.31,0,0,1,3.79.09A5.31,5.31,0,0,1,98.44,49a.9.9,0,0,0,1.07.74,6.54,6.54,0,0,0,3.21-1c.67-.42,1.35-.82,2-1.19a1.05,1.05,0,0,1,1.48.31c1,1.31,1.77,2.59,1.17,4.4-.81,2.47-1.39,5-2,7.54a6,6,0,0,0-.2,1.4c0,.69.29.87.9.57a4.08,4.08,0,0,0,.78-.52A30.13,30.13,0,0,0,110,58a2.49,2.49,0,0,0,.33-1.28,16,16,0,0,1,6.32-10.57,9.94,9.94,0,0,1,6-2c3.34,0,5,2.41,3.85,5.58a6.68,6.68,0,0,1-2.69,3.22,30.88,30.88,0,0,1-4.16,2.25l-1.91.93c-.69.34-1.43.55-1.27,1.66a2.5,2.5,0,0,0,1.6,2.32,7,7,0,0,0,4.28,0,13.87,13.87,0,0,0,6.11-4,4.45,4.45,0,0,0,1.38-3A19.79,19.79,0,0,1,133,43.58c1.14-1.79,2.39-1.86,3.77-.22a8.11,8.11,0,0,1,1.16,2c.34-.1.47-.41.69-.63a6.21,6.21,0,0,1,4.76-2.12A4.43,4.43,0,0,1,147.91,47l1-.94a7.76,7.76,0,0,1,6.44-2.18,4.14,4.14,0,0,1,3.9,4.21,25.71,25.71,0,0,1-1.17,7.07c-.18.74-.36,1.49-.51,2.23-.06.28-.11.62.14.82s.62,0,.89-.1a13.88,13.88,0,0,0,2.59-2.06,5.72,5.72,0,0,0,2-3.27,12.35,12.35,0,0,1,5.58-7.94,9,9,0,0,1,7.56-1.17c.71.2,1.5.09,2.14.56.28.2.34-.13.46-.27.65-.74,1-.86,1.93-.42a7.06,7.06,0,0,1,3.38,3.62,1.22,1.22,0,0,1-.08,1.21c-.24.38-.39.81-.65,1.17a6.09,6.09,0,0,0-1.19,3.68,32.5,32.5,0,0,0,.1,5.92c.24,1.53.78,1.79,2.14,1.06a19.77,19.77,0,0,0,2.88-2.09c.57-.47,1.14-.95,1.74-1.37s1.06-.34,1.29.42A4.37,4.37,0,0,1,189.88,60.7ZM74.33,62.86l.06-.09c.75-2.16,1.55-4.28,3.37-5.9.45,2.33-1.34,5.46-3.32,5.94Zm97.11-13.25a12.52,12.52,0,0,0-1.85,3,10.16,10.16,0,0,0-.49,4.2,2.86,2.86,0,0,0,3.78,2.78,5.91,5.91,0,0,0,4.15-5c.1-1.92.22-3.83.45-5.74a7,7,0,0,0,.29-2.27A9.93,9.93,0,0,0,171.44,49.61Zm2.72,4.78a2.93,2.93,0,0,1-1.56,2.25c-.27.15-.61.33-.66-.24A6.16,6.16,0,0,1,174,51.08a1,1,0,0,1,.2-.12s.05,0,.18,0C174.3,52.14,174.31,53.28,174.16,54.39ZM120.5,51a33.1,33.1,0,0,1-3.53,2.7,10,10,0,0,1,.71-3.13A7,7,0,0,1,119,48.65a1.7,1.7,0,0,1,2.32,0A2.25,2.25,0,0,1,120.5,51Zm-85.91-6.4a8.33,8.33,0,0,1-1.92,3.22c-.27.29-.44.34-.74,0a14.49,14.49,0,0,1-3.36-5.46.73.73,0,0,1,.29-.94,3.79,3.79,0,0,1,2.55-.7,5.77,5.77,0,0,1,1.13.15C34.48,41.43,35.17,42.64,34.59,44.56Z"/><path class="cls-4" d="M38.76,64.29a8.84,8.84,0,0,1-4.2,4.43,12.3,12.3,0,0,1-14-1.54,7.52,7.52,0,0,1-2.15-3.06c.69.34,1,1.07,1.43,1.6a10.71,10.71,0,0,0,6.56,3.61,11.86,11.86,0,0,0,11.39-3.92C38.07,65,38.17,64.44,38.76,64.29ZM90,65a14.73,14.73,0,0,1-6.68,4.28A20.18,20.18,0,0,1,78.4,70a6.12,6.12,0,0,1-4.18-1c-.14-.1-.32-.51-.6-.13a2.7,2.7,0,0,0,2.26,1.61,14.76,14.76,0,0,0,6.34-.31,13.75,13.75,0,0,0,8.61-5.69C90.34,64.28,90.18,64.75,90,65ZM27.5,56.46a6.15,6.15,0,0,1,1.89,3.63c.05,1-.2,1.25-1.05,1.29-1.34.07-1.69-.17-1.75-1.2,0-.18,0-.37,0-.55a15.5,15.5,0,0,1,.45-3C27.12,56.25,27.27,56.19,27.5,56.46Zm0,3.56c0,.42.24.45.56.45s.35-.29.33-.54a3.39,3.39,0,0,0-.71-1.64A5.6,5.6,0,0,0,27.53,60Zm50.23-3.15c-1.82,1.62-2.62,3.74-3.37,5.9l0,0C76.42,62.33,78.21,59.2,77.76,56.87ZM176.36,62c-2.77,3.12-9,3-11.79,0-.17-.19-.3-.54-.68-.4a3.41,3.41,0,0,0,1.24,1.47,9,9,0,0,0,8.6,1.2,6,6,0,0,0,3.43-2.84C176.72,61.34,176.57,61.74,176.36,62Zm-149-9.86a24.2,24.2,0,0,1,4.35,5.56c.32-.37,0-.68-.13-1a11.25,11.25,0,0,0-2.21-3.13,40.49,40.49,0,0,1-4.89-6c-.09-.16-.16-.41-.42-.42a2.48,2.48,0,0,0,.43,1.08A18.85,18.85,0,0,0,27.36,52.1Zm161.57,9.49a10.29,10.29,0,0,1-4.68,2.8c-1.79.5-3.61.87-5.27-.44a.29.29,0,0,0-.36,0,2.54,2.54,0,0,0,2.14,1.35,9.33,9.33,0,0,0,5.53-1.18,7.71,7.71,0,0,0,3.38-3C189.27,61,189.13,61.39,188.93,61.59ZM133.32,63.7c-1.23.73-2.38.91-3.47-.22.26,1.2.91,1.87,1.79,1.62a8.9,8.9,0,0,0,4.22-2.45.82.82,0,0,0,.31-.69.9.9,0,0,0-.69.31A10.65,10.65,0,0,1,133.32,63.7ZM91.49,68.14a1.23,1.23,0,0,0,1.13,1.12A4.79,4.79,0,0,0,97,66.77a1.15,1.15,0,0,0-.7.31A4.25,4.25,0,0,1,91.49,68.14ZM146.67,62c-1.56,1-3.09,2.13-5.12,1.32a1.42,1.42,0,0,0,2,.93,11.46,11.46,0,0,0,2.88-1.4,2.5,2.5,0,0,0,1.1-1.17C147.16,61.63,146.94,61.86,146.67,62ZM63.81,69.09a2.5,2.5,0,0,0-1.12.27c-1.79,1-3.62,1.7-5.67.81-.22-.09-.36,0-.35.22a2.56,2.56,0,0,0,2.41.73,9.86,9.86,0,0,0,4.31-1.57c.14-.09.35-.53.57,0C64.13,69.3,64.26,69.07,63.81,69.09Zm10.52-6.23.11,0,0,0ZM176.51,46.13A9.29,9.29,0,0,0,171,49.38a4.85,4.85,0,0,0-1.4,3.2,12.52,12.52,0,0,1,1.85-3,9.93,9.93,0,0,1,6.33-3s.06,0,.07,0,0,0,0-.06C177.57,45.83,177,46,176.51,46.13Zm-55.95,1.5a2.8,2.8,0,0,0-2.88,2.9A7,7,0,0,1,119,48.65a1.7,1.7,0,0,1,2.32,0C121.49,48,121.09,47.72,120.56,47.63Zm52,9a2.93,2.93,0,0,0,1.56-2.25c.15-1.11.14-2.25.21-3.39-.13,0-.16,0-.18,0a1,1,0,0,0-.2.12,6.16,6.16,0,0,0-2.05,5.32C172,57,172.33,56.79,172.6,56.64Zm18.32,8.84a13.8,13.8,0,0,1-8.1,3.59,7.61,7.61,0,0,1-6-1.46.9.9,0,0,0-1.06-.1,13.19,13.19,0,0,1-11.87-.7c-.73-.41-1.31-1.32-2-1.42s-1.48.7-2.3.92c-2,.54-4,1.16-6.2.49a7,7,0,0,1-3.21-2.18,11.77,11.77,0,0,1-6.84,3.47,4.61,4.61,0,0,1-4.49-2c-.33-.46-.5-.53-1-.14a12.24,12.24,0,0,1-5.46,2.74,4.91,4.91,0,0,1-4.84-1.61c-.31-.35-.49-.39-.89-.18a24.43,24.43,0,0,1-9.09,2.48,12.57,12.57,0,0,1-6.24-1.15.69.69,0,0,0-.84.11A12.08,12.08,0,0,1,104.28,71a6.9,6.9,0,0,1-4.2-.84.64.64,0,0,0-1,.19A8.83,8.83,0,0,1,92.83,73a4.57,4.57,0,0,1-3.47-1.29.49.49,0,0,0-.74-.07c-2.5,1.71-5.4,2.18-8.28,2.68a13.32,13.32,0,0,1-6.48-.5c-.42-.14-.52-.06-.59.37a52.37,52.37,0,0,1-1.43,7.45,5.42,5.42,0,0,1-3.68,3.61c-3.89,1.35-9-2.59-8.85-7,0-1,.07-2,.14-2.92,0-.34,0-.43-.39-.43a7.14,7.14,0,0,1-4.22-1.07.64.64,0,0,0-.71,0,12.56,12.56,0,0,1-10.29.1,7.88,7.88,0,0,1-4-3.4c-.31-.54-.51-.52-1-.14A16.2,16.2,0,0,1,18,70a13.48,13.48,0,0,1-4.29-8.59,12.29,12.29,0,0,1,2.66-9.55,7.53,7.53,0,0,1,3.82-2.68c.49-.14.39-.33.28-.67a15.19,15.19,0,0,1-.95-4.71c.05-4.71,1.82-8.61,6.25-10.33a12.87,12.87,0,0,1,13.28,1.89,7.86,7.86,0,0,1,2.36,3c1.72,3.9,2,7.77-.83,11.32-.59.74-.52,1.18.06,1.75.09.09.16.2.31.37.12-.57.26-1,.32-1.53a3.68,3.68,0,0,1,2.54-3.07,10.74,10.74,0,0,1,6.72-.71A5.76,5.76,0,0,1,53.84,49a9.38,9.38,0,0,1,9.35-2.37,4.07,4.07,0,0,1,2,1.38c.22.26.34.59.7.81a7.12,7.12,0,0,1,2.29-2.94,5.85,5.85,0,0,1,6.34,0A1.32,1.32,0,0,0,76,46a12.93,12.93,0,0,1,9.34-.45A10.74,10.74,0,0,1,87.8,47a6,6,0,0,1,2.66-3.82c3.31-2.09,7.48-1.72,9.87,1.54.49.67.82.7,1.4.23a6.06,6.06,0,0,1,3.52-1.27,4.64,4.64,0,0,1,3.88,1.78,8.47,8.47,0,0,1,.83,1.16c.27.46.44.46.76,0a16,16,0,0,1,4.94-4.38,14.18,14.18,0,0,1,7.32-2,8.28,8.28,0,0,1,6,2.62l1.36-2a5.35,5.35,0,0,1,4.39-2.45,4.9,4.9,0,0,1,3.47,1.09,1,1,0,0,0,1.12.13c3.32-1.31,6.5-1.2,9.39,1.08a1.27,1.27,0,0,0,1.42.18,11.06,11.06,0,0,1,7.89-.2,7.51,7.51,0,0,1,4.53,4.57c.23,0,.29-.18.4-.31a15,15,0,0,1,10-5.42,8.28,8.28,0,0,1,3,.26,4.92,4.92,0,0,0,2.87,0,4.86,4.86,0,0,1,4.09.61,9.84,9.84,0,0,1,5.15,6.84,4.79,4.79,0,0,1-.46,2.75,7.06,7.06,0,0,1-.81,1.54,4.2,4.2,0,0,0-.71,2.81c.43-.31.79-.6,1.17-.84A4.45,4.45,0,0,1,194,56.05C195.11,59.92,193.63,62.92,190.92,65.48Zm2.28-8.93a3.59,3.59,0,0,0-4.42-2.7,10.11,10.11,0,0,0-2.59,1.62c-.35.24-.6.64-1.05.74-.15-2.13-.11-4.16,1.27-5.91a3.16,3.16,0,0,0,.39-.78,4,4,0,0,0,.28-2.46,9.1,9.1,0,0,0-3.88-5.39,4.7,4.7,0,0,0-4.45-.9,4.52,4.52,0,0,1-2.6,0,9,9,0,0,0-2.82-.32,13.72,13.72,0,0,0-8.59,4,25.09,25.09,0,0,0-2.53,3.11c-.28-.22-.22-.51-.27-.76a6.44,6.44,0,0,0-4.26-5.19,10.24,10.24,0,0,0-8.06.56.65.65,0,0,1-.87-.16,8.07,8.07,0,0,0-9.44-1.28.94.94,0,0,1-1.27-.11,4.63,4.63,0,0,0-7,.9,37.79,37.79,0,0,0-1.93,3.31c-1.69-3-4.39-3.85-7.5-3.52a14.63,14.63,0,0,0-10.31,6.12,6.43,6.43,0,0,1-1.2,1.51,9.3,9.3,0,0,0-1.5-2.65,3.82,3.82,0,0,0-4.17-1.52,9,9,0,0,0-2.49,1.16c-1.27.79-1.28.78-2.13-.38-.09-.13-.18-.26-.28-.38-2.7-3.59-8.1-2.69-10,.26a8.69,8.69,0,0,0-1.06,3.64,6.9,6.9,0,0,0-3.22-2.54,11.58,11.58,0,0,0-9.36.57A1,1,0,0,1,74.48,47,4.81,4.81,0,0,0,66.82,49c-.36,1-.78,2-1.18,3a14.21,14.21,0,0,0-.55-2.27,3.4,3.4,0,0,0-2.24-2.3,7.51,7.51,0,0,0-9.11,3.84l-.18-.6a4.51,4.51,0,0,0-3.4-3.28,10,10,0,0,0-6,.74,2.88,2.88,0,0,0-1.93,2.41c-.18,1.44-.42,2.88-.66,4.5A14.85,14.85,0,0,0,39,50.82c-.23-.27-.26-.43,0-.7a8.52,8.52,0,0,0,2.62-8,9.58,9.58,0,0,0-4.29-6.89,11.56,11.56,0,0,0-4.12-1.54,11.45,11.45,0,0,0-8,1.13c-3.86,2.11-5.1,6.43-4.52,10.5A14.14,14.14,0,0,0,22,49.75a7.53,7.53,0,0,0-5.4,3.37,12.53,12.53,0,0,0,1.15,15.3c3.48,3.78,7.92,5.08,12.92,4.44a13.76,13.76,0,0,0,8.88-4.58s.13,0,.2,0a6.79,6.79,0,0,0,2.86,3.88,11.2,11.2,0,0,0,11.5.56c.24-.12.41-.28.69-.05A6,6,0,0,0,60,73.81c.48-.09.54,0,.51.45-.08,1.11-.13,2.21-.21,3.32-.22,3,1.28,5.06,3.8,6.38a4.67,4.67,0,0,0,6.26-1.37,6.52,6.52,0,0,0,1-3c.42-2.22.77-4.46,1.13-6.7.09-.54.16-.8.8-.4a7,7,0,0,0,3.63,1c4.2,0,8.25-.6,11.8-3.09.4-.29.6-.22.88.16a3.6,3.6,0,0,0,3.25,1.48A7.54,7.54,0,0,0,98.94,69c.31-.45.49-.51,1-.16a5.87,5.87,0,0,0,4.7,1.09,11.66,11.66,0,0,0,5.69-2.58c.28-.24.52-.45,1-.2a10.84,10.84,0,0,0,6.18,1.32,21.9,21.9,0,0,0,9.34-2.69c.55-.32.84-.33,1.13.25a4.29,4.29,0,0,0,4.55,1.73,11.19,11.19,0,0,0,6.2-4.1,6.21,6.21,0,0,0,.22.69c.88,2.13,2.5,3.06,4.39,2.78a9.54,9.54,0,0,0,6.94-4.26c.12.19.23.39.36.59a5.25,5.25,0,0,0,3.39,2.5,10.18,10.18,0,0,0,6.93-1.29c.91-.47,1.35-.49,2.11.24,3.27,3.11,9.07,3.54,13.11,1.38.28-.15.46-.26.73,0a6.06,6.06,0,0,0,4.87,1.84,12.82,12.82,0,0,0,9.25-4A7.78,7.78,0,0,0,193.2,56.55Z"/></g></g></g></svg>