<svg xmlns="http://www.w3.org/2000/svg" viewBox="0 0 208 120"><defs><style>.cls-1{fill:none;}.cls-2{fill:#84299a;}.cls-3{fill:#fff;}</style></defs><title>text-petal</title><g id="Camada_2" data-name="Camada 2"><g id="petalas"><rect class="cls-1" width="208" height="120"/><g id="petal-text"><path class="cls-2" d="M204.63,56.25A13.36,13.36,0,0,0,201.22,52a7.34,7.34,0,0,0-4.72-2.09,12.88,12.88,0,0,0-7.41,2.6c-1.08.77-2.08,1.67-3.14,2.53l-.32-.37c-.83-.9-1.61-1.86-2.51-2.69a8.19,8.19,0,0,0-4.43-2.2,3.36,3.36,0,0,0-3.57,1.42,3.94,3.94,0,0,0-.62-.34,13.5,13.5,0,0,0-3.56-.79,8.53,8.53,0,0,0-4.58,1.66A25.81,25.81,0,0,0,159,59.82l-.38.61-.14-.08c.41-1,.81-2.07,1.25-3.09,1.28-3,2.58-6,3.85-9,.65-1.56.95-3.19-.07-4.66-1.8-2.6-4.06-4.65-7.34-5.17-1.55-.25-3.59.27-3.86,2.35a12.63,12.63,0,0,1-.13,1.86,109.43,109.43,0,0,1-4.88,13,1.53,1.53,0,0,1-.17.27l-1.62-1.58a8.94,8.94,0,0,0-5.36-2.61,3.43,3.43,0,0,0-3.82,1.92,7.1,7.1,0,0,0-6.74,0,7.11,7.11,0,0,0,.07-1.62,8,8,0,0,0-.66-2.45c-.71-1.28-2-1.35-3.3-1.18a3.17,3.17,0,0,1-1.29.07c-.23-.08-.32-.58-.48-.88a1.09,1.09,0,0,0-.14-.23c-1.81-2.46-4-4.35-7.15-4.9a4.32,4.32,0,0,0-2.5.34,2.54,2.54,0,0,0-1.53,2.73,2.58,2.58,0,0,1,0,.92c-.27,1-.57,2-.92,3a.89.89,0,0,1-.64.48,8.42,8.42,0,0,1-3.86-.68c-.55-.27-.72-.55-.55-1.16a2.35,2.35,0,0,0-3.88-2.43c-2.4,2.38-3.9,5.09-2.89,8.63,0,.16,0,.33.08.52a19.93,19.93,0,0,0-6.21,2,23.17,23.17,0,0,0-5.2,4.13c-.12-1-.2-1.87-.32-2.74a13.6,13.6,0,0,0-5.29-9.1c-4.05-3.15-8.81-4.19-13.74-4.6a32.59,32.59,0,0,0-12.54,1.66,17.33,17.33,0,0,0-7.28,4.38,15,15,0,0,0-3.88,7.59,8.85,8.85,0,0,0,1.35,7.29,10.32,10.32,0,0,0,4.68,3.65c1.51.58,3.08,1,4.65,1.5-.06.18-.16.42-.24.67-.75,2.38-1.59,4.75-2.23,7.16A7.68,7.68,0,0,0,56,86.57a15.66,15.66,0,0,0,8.5,3.91A2.55,2.55,0,0,0,67,89.36a2.85,2.85,0,0,0-.43-3.55,3.05,3.05,0,0,1-.64-1.46,11.8,11.8,0,0,1,1-5.91c.07-.18.41-.33.64-.36,1.62-.18,3.25-.24,4.85-.52a20.74,20.74,0,0,0,9.81-4.25c.13-.1.29-.17.52-.31,0,.55,0,1,0,1.46a9.13,9.13,0,0,0,1.31,4.31,11,11,0,0,0,8.63,4.92,14.25,14.25,0,0,0,9.49-2.81c1-.69,1.94-1.43,2.91-2.15A11.74,11.74,0,0,0,113.57,82a9.92,9.92,0,0,0,8-4.37c1.6,1.34,3.31,2.38,5.39,2.28a7.41,7.41,0,0,0,5-2.66c5.06,3.34,9.6,2.4,13.85-1.31a10.92,10.92,0,0,0,7.44,1.71,10,10,0,0,0,6.4-4.14c3.72,3.85,7.28,4.23,10.9,1,4.1,3.41,8.39,3.61,13,.93a3.81,3.81,0,0,0,.22.34,6.79,6.79,0,0,0,3.61,2.32,42.59,42.59,0,0,0,5.56,1.07,16.56,16.56,0,0,0,4.39-.11,6.08,6.08,0,0,0,5.35-4.53c.82-2.84.31-5.29-2-7.17-1.31-1-2.73-1.93-4.1-2.88-.37-.25-.76-.49-1.19-.76A12.07,12.07,0,0,1,199.78,61a1,1,0,0,1,1.22.36,2.13,2.13,0,0,0,2.32.68A2.23,2.23,0,0,0,205,60.46,5.29,5.29,0,0,0,204.63,56.25ZM80.75,71.57a20.28,20.28,0,0,1-10.79,4c-1.33.12-2.68,0-4,.07a.73.73,0,0,0-.55.32c-.9,2.48-1.89,4.93-1.83,7.65a5.17,5.17,0,0,0,1.34,3.81c.13.12.15.35.22.52a1.63,1.63,0,0,1-.53.17,4.63,4.63,0,0,1-1-.14,15.45,15.45,0,0,1-5.29-2.48,6.07,6.07,0,0,1-2.53-6.7,60.51,60.51,0,0,1,3.32-9.57c1.22-3.11,2.48-6.2,3.68-9.32a4.08,4.08,0,0,0,.43-2.81c0-.08.26-.38.39-.38a2.86,2.86,0,0,1,1.28.21,23.48,23.48,0,0,1,3,1.91,18.53,18.53,0,0,1,1.76,1.88,3.15,3.15,0,0,1,.53,3.82c-.88,1.92-1.68,3.88-2.51,5.82-.15.36-.27.73-.43,1.15,5.68,1,9.35-3.05,10.08-7.4.52-3.09-.24-5.78-2.88-7.71a9.11,9.11,0,0,0-5-1.54,17.89,17.89,0,0,0-6.92.83c-4,1.41-6.79,4.32-6.57,8.69a22,22,0,0,0,.47,2.91c.12.66,0,.86-.65.72A11.63,11.63,0,0,1,49,64.51c-1.75-2-1.83-4.35-1.17-6.78,1.37-5,4.84-8,9.64-9.53a30.66,30.66,0,0,1,12-1.46,24.77,24.77,0,0,1,9.74,2.58c3.67,1.92,6.17,4.8,6.8,9C86.74,63.71,85.13,68.18,80.75,71.57Zm-20.13-12-2.26,5.75-.06-.19-.07.19a5.16,5.16,0,0,1,2.26-5.75l0,.11Zm8.9-2.32a5.82,5.82,0,0,1,4,1.45,5.2,5.2,0,0,1,1.53,5.07,6.88,6.88,0,0,1-3.61,5.16c-.22.11-.46.19-.89.37l0-.07-.16.07c.43-1,.78-1.78,1.11-2.58s.59-1.42.84-2.15c.73-2.16,0-4-1.47-5.54-.49-.55-1-1.11-1.55-1.78h.13Zm133.21,2.63c-1-1.52-2.46-1.4-3.89-.92a12.63,12.63,0,0,0-5.7,3.8c-.94,1.12-.87,1.58.32,2.4,1.73,1.18,3.47,2.33,5.21,3.49l.36.29a4.07,4.07,0,0,1,1.53,4.79,4.13,4.13,0,0,1-3.77,3.12,19,19,0,0,1-9-1.06,4.54,4.54,0,0,1-3.29-4.43c-.57.54-1.05,1-1.56,1.5a7.36,7.36,0,0,1-5.6,2.09,10.69,10.69,0,0,1-3.19-.76,3.68,3.68,0,0,1-2.48-3.94v-.56l-.52.62c-1,1-1.83,2.09-2.87,3-1.65,1.43-3,1.46-4.9.37a7.6,7.6,0,0,1-3.19-3.92l-.32-.78a8.39,8.39,0,0,1-.44.75,39.35,39.35,0,0,1-2.88,3.76,7.16,7.16,0,0,1-10.71-.77,1.19,1.19,0,0,1-.14-.17l-.83.92a9.31,9.31,0,0,1-5.61,3.46,7.87,7.87,0,0,1-3.91-.34,3.31,3.31,0,0,1-2.38-3.42v-.75c-.77,1-1.39,1.83-2.13,2.6a16.27,16.27,0,0,1-2.42,2.12,3.09,3.09,0,0,1-3.15.2A6.38,6.38,0,0,1,122,74.42c-.15-.29-.3-.57-.51-1-.18.3-.28.51-.42.7-.71,1-1.35,2-2.15,2.92a7.45,7.45,0,0,1-8.53,2.12,12.76,12.76,0,0,1-2.76-1.39A3.53,3.53,0,0,1,106,75.1a1,1,0,0,0-.07-.25s0,0-.22-.21a2.51,2.51,0,0,1-.38.61,21.63,21.63,0,0,1-7.65,5.42,9.93,9.93,0,0,1-8.26-.25c-3.5-1.75-5-4.56-4.12-8.43a19.69,19.69,0,0,1,9.22-13,14.75,14.75,0,0,1,8.6-2c2.5.13,3.74,1.73,3.33,4.39a18.42,18.42,0,0,1-6.09,11c-1.65,1.49-2.89,1.71-5.44,1.27-.19,2.9,1.59,3.91,3.75,3.22a9,9,0,0,0,3-1.61c1.64-1.43,3.12-3,4.65-4.58a1.77,1.77,0,0,0,.35-.63q2.18-6,4.34-12.09l.21-.55a3.81,3.81,0,0,0-.48,0,10.56,10.56,0,0,1-6.45-1.2,4.35,4.35,0,0,1-1.94-6.26,18.36,18.36,0,0,1,1.57-2.27,2.26,2.26,0,0,1,.47-.4l.15.09a8.55,8.55,0,0,1-.14.86,2.08,2.08,0,0,0,1,2.61A7.08,7.08,0,0,0,108.75,52c1.28.11,2.58,0,3.88.06a.58.58,0,0,0,.65-.49c.5-1.75,1-3.5,1.52-5.25a1.52,1.52,0,0,0,0-.84c-.2-.57.13-.77.54-.82a4,4,0,0,1,1.43.05,9.33,9.33,0,0,1,5,3.75,1.9,1.9,0,0,1,.28,1.76l-.22.86,4.33-.55c.68-.09,1.05.12,1.12.78a7.78,7.78,0,0,1-.57,3.87c-.19.46-.41.6-1,.33a3.4,3.4,0,0,0-1.78-.31c-1.27.12-2.53.36-3.78.6a.85.85,0,0,0-.55.46c-1.74,4.82-3.5,9.64-5.14,14.49a15.42,15.42,0,0,0-.6,4c-.08,1.36.67,1.77,1.84,1.06a8.24,8.24,0,0,0,1.76-1.47A23.49,23.49,0,0,0,119.4,72a6.11,6.11,0,0,0,1.36-3.27,8.86,8.86,0,0,1,.92-3.14,24.84,24.84,0,0,1,7.08-8.84,6.25,6.25,0,0,1,4.3-1.76,6.76,6.76,0,0,1,2.42.72,25.86,25.86,0,0,1,2.58,1.66c.25-.92.77-1.76.48-2.76A.45.45,0,0,1,139,54a5.16,5.16,0,0,1,1.62,0,9,9,0,0,1,4.95,3.65,2.15,2.15,0,0,1,.19,2.15c-.53,1.44-1.16,2.85-1.69,4.3-.77,2.1-1.52,4.22-2.22,6.35a5.18,5.18,0,0,0-.2,1.62c0,.53.34.74.8.48a3.94,3.94,0,0,0,1.17-.94,11.58,11.58,0,0,0,2.11-4.17c.95-3.42,2.12-6.79,3.34-10.13,1.47-4.07,3.1-8.08,4.62-12.13.34-.9.56-1.85.81-2.78a6.65,6.65,0,0,0,.1-.78c0-.31,0-.81.13-.87a2.16,2.16,0,0,1,1.25-.19,6.48,6.48,0,0,1,3.24,1.54c.61.54,1.17,1.13,1.76,1.69a2.8,2.8,0,0,1,.59,3.49q-1.91,4.32-3.73,8.67a79.33,79.33,0,0,0-4.5,13.23,10.34,10.34,0,0,0-.2,2.23c0,.73.41,1,1,.55a5.36,5.36,0,0,0,1.24-1.08,27.32,27.32,0,0,0,4.48-7.56,20.44,20.44,0,0,1,8.3-10.07,5.1,5.1,0,0,1,6.47.33l2.12,1.7a4.85,4.85,0,0,0,.48-2.8c0-.13.21-.47.33-.47a4,4,0,0,1,1.48.11,10.35,10.35,0,0,1,5.27,4.6,2.68,2.68,0,0,1-.08,2.6c-.88,2.08-1.82,4.15-2.65,6.26-.48,1.2-.8,2.46-1.18,3.7a1.33,1.33,0,0,0-.07.59,11.38,11.38,0,0,0,.29,1.15c.42-.13,1-.14,1.23-.42a13.3,13.3,0,0,0,2-2.46c.95-1.63,1.76-3.34,2.61-5a1,1,0,0,0,0-.73,5.07,5.07,0,0,1,1-5.42,13.52,13.52,0,0,1,8-4.8,4,4,0,0,1,3.13.68,11.72,11.72,0,0,1,4.11,4.64A2.22,2.22,0,0,1,202.73,59.85Zm-78.31-2.44c-1.43,2.05-2.83,3.94-4.1,5.92a12.77,12.77,0,0,0-1.89,5.7,1.81,1.81,0,0,1-.29.79c-.45.69-.93,1.37-1.4,2.06l-.1,0,0,0-.16-.08c.21-.68.39-1.36.62-2l4.12-11.46a.75.75,0,0,1,.73-.61c.79-.06,1.58-.19,2.37-.29l0,0ZM89.6,54.55c.59.42,1.18.84,1.78,1.25a2.52,2.52,0,0,0,3.42-.57c.27-.35.52-.71.78-1.06a17,17,0,0,1,2.91-3.48,2.18,2.18,0,0,0,.25-2.94,6.14,6.14,0,0,0-4.33-2.29,3.93,3.93,0,0,0-3.24,1.69,44,44,0,0,0-2.47,4.12A2.37,2.37,0,0,0,89.6,54.55Zm3.3-6.18a1.51,1.51,0,0,1,1.39-.72,1.81,1.81,0,0,1,.67.13,22.5,22.5,0,0,1,2.11,1.16c-1.91,1.39-2.82,3.39-4.26,5l-.08-.06,0,.06-2.24-1.52C91.27,51.06,92,49.69,92.9,48.37ZM175.33,58a1,1,0,0,1,.16.79c-.58,1.68-1.2,3.35-1.81,5a1.42,1.42,0,0,1-.3.57c-.94.87-1.88,1.73-2.85,2.55a3.29,3.29,0,0,1-1.07.5c-.56.18-.77,0-.76-.83.09-.31.19-.86.38-1.37a32.26,32.26,0,0,1,3.54-7.07C173.62,56.67,174.12,56.65,175.33,58Zm-38.8,2.14a.74.74,0,0,1,.28,1c-.63,1.72-1.2,3.45-1.81,5.17a1.85,1.85,0,0,1-.36.68c-.82.87-1.64,1.73-2.51,2.54a5.06,5.06,0,0,1-1.4.84c-.54.24-.77,0-.79-.59a17.53,17.53,0,0,1,.67-2.2c1-2.16,2-4.29,3.09-6.42a4.69,4.69,0,0,1,.42-.67C135,59.2,135.36,59.16,136.53,60.15Zm51.62,4.9c2.2,1.24,4.35,2.43,6.46,3.68.4.24.64.76.95,1.15a6.36,6.36,0,0,1-1.42.46,10.16,10.16,0,0,1-5.28-1.12,3.57,3.57,0,0,1-1.16-1,1.62,1.62,0,0,1-.18-1.9A14.31,14.31,0,0,0,188.15,65.05ZM96.34,70.2a1.46,1.46,0,0,1-.85.27,21.77,21.77,0,0,1,4.76-9.27l.32.12a8.85,8.85,0,0,1-.18,1,27.38,27.38,0,0,1-3.18,6.85A4.5,4.5,0,0,1,96.34,70.2Z"/><path class="cls-3" d="M60.49,59.54l0,.11A5.19,5.19,0,0,0,58.3,65.1l-.07.19A5.16,5.16,0,0,1,60.49,59.54Zm25.45-1.21c-.63-4.21-3.13-7.09-6.8-9a24.77,24.77,0,0,0-9.74-2.58,30.66,30.66,0,0,0-12,1.46c-4.8,1.57-8.27,4.5-9.64,9.53-.66,2.43-.58,4.77,1.17,6.78A11.63,11.63,0,0,0,55.76,68c.65.14.77-.06.65-.72a22,22,0,0,1-.47-2.91c-.22-4.37,2.55-7.28,6.57-8.69a17.89,17.89,0,0,1,6.92-.83,9.11,9.11,0,0,1,5,1.54c2.64,1.93,3.4,4.62,2.88,7.71-.73,4.35-4.4,8.44-10.08,7.4.16-.42.28-.79.43-1.15.83-1.94,1.63-3.9,2.51-5.82a3.15,3.15,0,0,0-.53-3.82,18.53,18.53,0,0,0-1.76-1.88,23.48,23.48,0,0,0-3-1.91,2.86,2.86,0,0,0-1.28-.21c-.13,0-.42.3-.39.38a4.08,4.08,0,0,1-.43,2.81c-1.2,3.12-2.46,6.21-3.68,9.32a60.51,60.51,0,0,0-3.32,9.57,6.07,6.07,0,0,0,2.53,6.7A15.45,15.45,0,0,0,63.61,88a4.63,4.63,0,0,0,1,.14,1.63,1.63,0,0,0,.53-.17c-.07-.17-.09-.4-.22-.52a5.17,5.17,0,0,1-1.34-3.81c-.06-2.72.93-5.17,1.83-7.65a.73.73,0,0,1,.55-.32c1.34,0,2.69,0,4-.07a20.28,20.28,0,0,0,10.79-4C85.13,68.18,86.74,63.71,85.94,58.33Zm-27.58,7,2.26-5.75-.17.11c-.7,1.77-1.4,3.56-2.15,5.45Zm144.39-7.8a2.22,2.22,0,0,1,0,2.36c-1-1.52-2.46-1.4-3.89-.92a12.63,12.63,0,0,0-5.7,3.8c-.94,1.12-.87,1.58.32,2.4,1.73,1.18,3.47,2.33,5.21,3.49l.36.29a4.07,4.07,0,0,1,1.53,4.79,4.13,4.13,0,0,1-3.77,3.12,19,19,0,0,1-9-1.06,4.54,4.54,0,0,1-3.29-4.43c-.57.54-1.05,1-1.56,1.5a7.36,7.36,0,0,1-5.6,2.09,10.69,10.69,0,0,1-3.19-.76,3.68,3.68,0,0,1-2.48-3.94v-.56l-.52.62c-1,1-1.83,2.09-2.87,3-1.65,1.43-3,1.46-4.9.37a7.6,7.6,0,0,1-3.19-3.92l-.32-.78a8.39,8.39,0,0,1-.44.75,39.35,39.35,0,0,1-2.88,3.76,7.16,7.16,0,0,1-10.71-.77,1.19,1.19,0,0,1-.14-.17l-.83.92a9.31,9.31,0,0,1-5.61,3.46,7.87,7.87,0,0,1-3.91-.34,3.31,3.31,0,0,1-2.38-3.42v-.75c-.77,1-1.39,1.83-2.13,2.6a16.27,16.27,0,0,1-2.42,2.12,3.09,3.09,0,0,1-3.15.2A6.38,6.38,0,0,1,122,74.42c-.15-.29-.3-.57-.51-1-.18.3-.28.51-.42.7-.71,1-1.35,2-2.15,2.92a7.45,7.45,0,0,1-8.53,2.12,12.76,12.76,0,0,1-2.76-1.39A3.53,3.53,0,0,1,106,75.1a1,1,0,0,0-.07-.25s0,0-.22-.21a2.51,2.51,0,0,1-.38.61,21.63,21.63,0,0,1-7.65,5.42,9.93,9.93,0,0,1-8.26-.25c-3.5-1.75-5-4.56-4.12-8.43a19.69,19.69,0,0,1,9.22-13,14.75,14.75,0,0,1,8.6-2c2.5.13,3.74,1.73,3.33,4.39a18.42,18.42,0,0,1-6.09,11c-1.65,1.49-2.89,1.71-5.44,1.27-.19,2.9,1.59,3.91,3.75,3.22a9,9,0,0,0,3-1.61c1.64-1.43,3.12-3,4.65-4.58a1.77,1.77,0,0,0,.35-.63q2.18-6,4.34-12.09l.21-.55a3.81,3.81,0,0,0-.48,0,10.56,10.56,0,0,1-6.45-1.2,4.35,4.35,0,0,1-1.94-6.26,18.36,18.36,0,0,1,1.57-2.27,2.26,2.26,0,0,1,.47-.4l.15.09a8.55,8.55,0,0,1-.14.86,2.08,2.08,0,0,0,1,2.61A7.08,7.08,0,0,0,108.75,52c1.28.11,2.58,0,3.88.06a.58.58,0,0,0,.65-.49c.5-1.75,1-3.5,1.52-5.25a1.52,1.52,0,0,0,0-.84c-.2-.57.13-.77.54-.82a4,4,0,0,1,1.43.05,9.33,9.33,0,0,1,5,3.75,1.9,1.9,0,0,1,.28,1.76l-.22.86,4.33-.55c.68-.09,1.05.12,1.12.78a7.78,7.78,0,0,1-.57,3.87c-.19.46-.41.6-1,.33a3.4,3.4,0,0,0-1.78-.31c-1.27.12-2.53.36-3.78.6a.85.85,0,0,0-.55.46c-1.74,4.82-3.5,9.64-5.14,14.49a15.42,15.42,0,0,0-.6,4c-.08,1.36.67,1.77,1.84,1.06a8.24,8.24,0,0,0,1.76-1.47A23.49,23.49,0,0,0,119.4,72a6.11,6.11,0,0,0,1.36-3.27,8.86,8.86,0,0,1,.92-3.14,24.84,24.84,0,0,1,7.08-8.84,6.25,6.25,0,0,1,4.3-1.76,6.76,6.76,0,0,1,2.42.72,25.86,25.86,0,0,1,2.58,1.66c.25-.92.77-1.76.48-2.76A.45.45,0,0,1,139,54a5.16,5.16,0,0,1,1.62,0,9,9,0,0,1,4.95,3.65,2.15,2.15,0,0,1,.19,2.15c-.53,1.44-1.16,2.85-1.69,4.3-.77,2.1-1.52,4.22-2.22,6.35a5.18,5.18,0,0,0-.2,1.62c0,.53.34.74.8.48a3.94,3.94,0,0,0,1.17-.94,11.58,11.58,0,0,0,2.11-4.17c.95-3.42,2.12-6.79,3.34-10.13,1.47-4.07,3.1-8.08,4.62-12.13.34-.9.56-1.85.81-2.78a6.65,6.65,0,0,0,.1-.78c0-.31,0-.81.13-.87a2.16,2.16,0,0,1,1.25-.19,6.48,6.48,0,0,1,3.24,1.54c.61.54,1.17,1.13,1.76,1.69a2.8,2.8,0,0,1,.59,3.49q-1.91,4.32-3.73,8.67a79.33,79.33,0,0,0-4.5,13.23,10.34,10.34,0,0,0-.2,2.23c0,.73.41,1,1,.55a5.36,5.36,0,0,0,1.24-1.08,27.32,27.32,0,0,0,4.48-7.56,20.44,20.44,0,0,1,8.3-10.07,5.1,5.1,0,0,1,6.47.33l2.12,1.7a4.85,4.85,0,0,0,.48-2.8c0-.13.21-.47.33-.47a4,4,0,0,1,1.48.11,10.35,10.35,0,0,1,5.27,4.6,2.68,2.68,0,0,1-.08,2.6c-.88,2.08-1.82,4.15-2.65,6.26-.48,1.2-.8,2.46-1.18,3.7a1.33,1.33,0,0,0-.07.59,11.38,11.38,0,0,0,.29,1.15c.42-.13,1-.14,1.23-.42a13.3,13.3,0,0,0,2-2.46c.95-1.63,1.76-3.34,2.61-5a1,1,0,0,0,0-.73,5.07,5.07,0,0,1,1-5.42,13.52,13.52,0,0,1,8-4.8,4,4,0,0,1,3.13.68A11.72,11.72,0,0,1,202.75,57.49Zm-107.26,13a1.46,1.46,0,0,0,.85-.27,4.5,4.5,0,0,0,.87-1,27.38,27.38,0,0,0,3.18-6.85,8.85,8.85,0,0,0,.18-1l-.32-.12A21.77,21.77,0,0,0,95.49,70.47Zm41-10.32c-1.17-1-1.53-.95-2.41.3a4.69,4.69,0,0,0-.42.67c-1,2.13-2.1,4.26-3.09,6.42a17.53,17.53,0,0,0-.67,2.2c0,.62.25.83.79.59a5.06,5.06,0,0,0,1.4-.84c.87-.81,1.69-1.67,2.51-2.54a1.85,1.85,0,0,0,.36-.68c.61-1.72,1.18-3.45,1.81-5.17A.74.74,0,0,0,136.53,60.15ZM175.33,58c-1.21-1.36-1.71-1.34-2.71.16a32.26,32.26,0,0,0-3.54,7.07c-.19.51-.29,1.06-.38,1.37,0,.82.2,1,.76.83a3.29,3.29,0,0,0,1.07-.5c1-.82,1.91-1.68,2.85-2.55a1.42,1.42,0,0,0,.3-.57c.61-1.67,1.23-3.34,1.81-5A1,1,0,0,0,175.33,58Zm12.82,7a14.31,14.31,0,0,1-.63,1.32,1.62,1.62,0,0,0,.18,1.9,3.57,3.57,0,0,0,1.16,1,10.16,10.16,0,0,0,5.28,1.12,6.36,6.36,0,0,0,1.42-.46c-.31-.39-.55-.91-.95-1.15C192.5,67.48,190.35,66.29,188.15,65.05ZM121.92,57.7a.75.75,0,0,0-.73.61l-4.12,11.46c-.23.67-.41,1.35-.62,2l.16.08,0,0-.06,0c.21-.68.39-1.36.63-2,1.36-3.82,2.75-7.64,4.11-11.46a.75.75,0,0,1,.73-.61c.74-.06,1.48-.17,2.22-.27l0,0C123.5,57.51,122.71,57.64,121.92,57.7ZM118.3,69a2.1,2.1,0,0,1-.29.79c-.44.68-.91,1.34-1.37,2l.1,0c.47-.69,1-1.37,1.4-2.06a1.81,1.81,0,0,0,.29-.79,12.77,12.77,0,0,1,1.89-5.7c1.27-2,2.67-3.87,4.1-5.92l-.15,0c-1.42,2-2.81,3.93-4.08,5.9A12.77,12.77,0,0,0,118.3,69ZM70.94,59c1.46,1.59,2.2,3.38,1.47,5.54-.25.73-.55,1.44-.84,2.15s-.68,1.59-1.11,2.58l.16-.07c.41-1,.76-1.73,1.08-2.51s.59-1.42.84-2.15c.73-2.16,0-4-1.47-5.54-.49-.54-1-1.11-1.55-1.77h-.13C70,57.89,70.45,58.45,70.94,59ZM94.29,47.65a1.51,1.51,0,0,0-1.39.72c-.86,1.32-1.63,2.69-2.46,4.07L92.68,54l0-.06.08.06c1.44-1.63,2.35-3.63,4.26-5A22.5,22.5,0,0,0,95,47.78,1.81,1.81,0,0,0,94.29,47.65ZM75,63.74a6.88,6.88,0,0,1-3.61,5.16c-.19.1-.4.17-.73.3l0,.07c.43-.18.67-.26.89-.37a6.88,6.88,0,0,0,3.61-5.16,5.2,5.2,0,0,0-1.53-5.07,5.82,5.82,0,0,0-4-1.45h0a5.78,5.78,0,0,1,3.91,1.44A5.2,5.2,0,0,1,75,63.74Z"/></g></g></g></svg>