<svg xmlns="http://www.w3.org/2000/svg" width="176" height="24" viewBox="0 0 176 24">
  <path id="Caminho_12" data-name="Caminho 12" d="M1495.326,1886.156c-7.82,0-11.725-5.645-14.861-10.181s-5.269-7.32-9.344-7.32-6.2,2.781-9.343,7.319-7.042,10.182-14.861,10.182-11.719-5.646-14.854-10.183-5.265-7.318-9.335-7.318-6.2,2.781-9.338,7.318-7.039,10.183-14.857,10.183-11.719-5.646-14.854-10.182-5.264-7.319-9.334-7.319-6.2,2.781-9.331,7.318-7.035,10.183-14.85,10.183-11.715-5.646-14.85-10.182-5.262-7.319-9.33-7.319a3.25,3.25,0,1,1,0-6.5c7.815,0,11.715,5.646,14.85,10.183s5.262,7.318,9.33,7.318,6.2-2.78,9.33-7.318,7.035-10.184,14.851-10.184,11.719,5.647,14.854,10.183,5.263,7.318,9.334,7.318,6.2-2.781,9.339-7.318,7.038-10.183,14.857-10.183,11.719,5.646,14.854,10.183,5.263,7.318,9.335,7.318,6.205-2.781,9.343-7.319,7.041-10.182,14.861-10.182,11.725,5.646,14.862,10.182,5.268,7.319,9.344,7.319a3.25,3.25,0,1,1,0,6.5Z" transform="translate(-1322.654 -1862.156)" fill="#4492e0"/>
</svg>
