<svg xmlns="http://www.w3.org/2000/svg" viewBox="0 0 197.35 27.57"><defs><style>.cls-1{fill:#285124;}</style></defs><title>wave-graphic-green</title><g id="Camada_2" data-name="Camada 2"><g id="Layer_2" data-name="Layer 2"><path class="cls-1" d="M193.61,27.57c-8.77,0-13.14-6.49-16.66-11.7S171,7.46,166.47,7.46s-6.95,3.2-10.47,8.41-7.9,11.7-16.67,11.7-13.14-6.49-16.65-11.7-5.91-8.41-10.47-8.41-6.95,3.2-10.47,8.41-7.89,11.7-16.66,11.7-13.14-6.49-16.65-11.7S62.52,7.46,58,7.46s-7,3.2-10.46,8.41-7.89,11.7-16.65,11.7-13.14-6.49-16.66-11.7S8.29,7.46,3.73,7.46A3.73,3.73,0,0,1,3.73,0C12.5,0,16.87,6.49,20.38,11.7s5.9,8.4,10.47,8.4,6.94-3.19,10.46-8.4S49.2,0,58,0,71.1,6.49,74.61,11.7s5.91,8.4,10.47,8.4,7-3.19,10.47-8.4S103.44,0,112.21,0s13.14,6.49,16.66,11.7,5.9,8.4,10.46,8.4,7-3.19,10.48-8.4S157.7,0,166.47,0s13.15,6.49,16.67,11.7,5.9,8.4,10.47,8.4a3.74,3.74,0,1,1,0,7.47Z"/></g></g></svg>