<svg xmlns="http://www.w3.org/2000/svg" viewBox="0 0 160.35 22.4"><defs><style>.cls-1{fill:#84299a;}</style></defs><title>wave-graphic-purple</title><g id="Camada_2" data-name="Camada 2"><g id="Layer_2" data-name="Layer 2"><path class="cls-1" d="M157.31,22.4c-7.12,0-10.68-5.27-13.54-9.5s-4.8-6.83-8.51-6.83-5.65,2.59-8.51,6.83-6.42,9.5-13.54,9.5-10.68-5.27-13.53-9.5-4.8-6.83-8.51-6.83-5.65,2.59-8.51,6.83-6.41,9.5-13.53,9.5S58.45,17.13,55.6,12.9s-4.8-6.83-8.51-6.83-5.64,2.59-8.5,6.83-6.41,9.5-13.53,9.5-10.67-5.27-13.53-9.5S6.74,6.07,3,6.07A3,3,0,0,1,3,0c7.12,0,10.68,5.27,13.53,9.5s4.8,6.84,8.5,6.84,5.65-2.6,8.5-6.84S40,0,47.09,0,57.77,5.27,60.63,9.5s4.79,6.84,8.5,6.84,5.65-2.6,8.51-6.84S84.05,0,91.17,0s10.68,5.27,13.54,9.5,4.79,6.84,8.5,6.84,5.65-2.6,8.51-6.84S128.14,0,135.26,0s10.68,5.27,13.54,9.5,4.8,6.84,8.51,6.84a3,3,0,1,1,0,6.06Z"/></g></g></svg>