<svg xmlns="http://www.w3.org/2000/svg" viewBox="0 0 24.32 24.29"><defs><style>.cls-1{fill:#285124;}</style></defs><title>x-graphic-green</title><g id="Camada_2" data-name="Camada 2"><g id="Layer_2" data-name="Layer 2"><path class="cls-1" d="M20.83,24.29a3.47,3.47,0,0,1-2.47-1L1,5.93A3.5,3.5,0,0,1,1,1,3.59,3.59,0,0,1,6,1L23.3,18.33a3.49,3.49,0,0,1-2.47,6ZM1.72,5.23h0Z"/><path class="cls-1" d="M3.49,24.29a3.49,3.49,0,0,1-2.47-6L18.36,1A3.58,3.58,0,0,1,23.3,1a3.5,3.5,0,0,1,0,4.94L6,23.27A3.44,3.44,0,0,1,3.49,24.29ZM22.6,5.23Z"/></g></g></svg>